<svg xmlns="http://www.w3.org/2000/svg" xmlns:xlink="http://www.w3.org/1999/xlink" width="150" zoomAndPan="magnify" viewBox="0 0 112.5 112.499997" height="150" preserveAspectRatio="xMidYMid meet" version="1.0"><defs><g/><clipPath id="7a27859fe9"><path d="M 44 11.199219 L 67 11.199219 L 67 57.496094 L 44 57.496094 Z M 44 11.199219 " clip-rule="nonzero"/></clipPath></defs><g fill="#000000" fill-opacity="1"><g transform="translate(39.447734, 91.139506)"><g><path d="M 6.5625 0 L 6.5625 -5.546875 L 4.890625 -5.546875 L 3.546875 -2.09375 L 2.203125 -5.546875 L 0.546875 -5.546875 L 0.546875 0 L 1.734375 0 L 1.734375 -3.984375 L 3.296875 0 L 3.8125 0 L 5.375 -3.984375 L 5.375 0 Z M 6.5625 0 "/></g></g></g><g fill="#000000" fill-opacity="1"><g transform="translate(46.553213, 91.139506)"><g><path d="M 5.71875 0 L 3.578125 -5.546875 L 2.109375 -5.546875 L -0.046875 0 L 1.25 0 L 1.609375 -0.953125 L 4.078125 -0.953125 L 4.4375 0 Z M 3.75 -1.984375 L 1.921875 -1.984375 L 2.84375 -4.515625 Z M 3.75 -1.984375 "/></g></g></g><g fill="#000000" fill-opacity="1"><g transform="translate(52.2376, 91.139506)"><g><path d="M 5.03125 0 L 3.796875 -2.109375 C 4.390625 -2.25 5 -2.78125 5 -3.75 C 5 -4.78125 4.296875 -5.546875 3.140625 -5.546875 L 0.546875 -5.546875 L 0.546875 0 L 1.734375 0 L 1.734375 -1.984375 L 2.59375 -1.984375 L 3.6875 0 Z M 3.796875 -3.765625 C 3.796875 -3.296875 3.4375 -3 2.96875 -3 L 1.734375 -3 L 1.734375 -4.53125 L 2.96875 -4.53125 C 3.4375 -4.53125 3.796875 -4.234375 3.796875 -3.765625 Z M 3.796875 -3.765625 "/></g></g></g><g fill="#000000" fill-opacity="1"><g transform="translate(57.581255, 91.139506)"><g><path d="M 5.296875 0 L 2.9375 -2.9375 L 5.140625 -5.546875 L 3.6875 -5.546875 L 1.734375 -3.0625 L 1.734375 -5.546875 L 0.546875 -5.546875 L 0.546875 0 L 1.734375 0 L 1.734375 -1.703125 L 2.15625 -2.21875 L 3.84375 0 Z M 5.296875 0 "/></g></g></g><g fill="#000000" fill-opacity="1"><g transform="translate(62.866739, 91.139506)"><g><path d="M 4.46875 0 L 4.46875 -1.015625 L 1.734375 -1.015625 L 1.734375 -2.3125 L 4.40625 -2.3125 L 4.40625 -3.328125 L 1.734375 -3.328125 L 1.734375 -4.53125 L 4.46875 -4.53125 L 4.46875 -5.546875 L 0.546875 -5.546875 L 0.546875 0 Z M 4.46875 0 "/></g></g></g><g fill="#000000" fill-opacity="1"><g transform="translate(67.71176, 91.139506)"><g><path d="M 3.015625 0 L 3.015625 -4.5 L 4.625 -4.5 L 4.625 -5.546875 L 0.203125 -5.546875 L 0.203125 -4.5 L 1.828125 -4.5 L 1.828125 0 Z M 3.015625 0 "/></g></g></g><path fill="#000000" d="M 26.75 24.835938 C 26.4375 24.835938 26.1875 24.585938 26.1875 24.273438 C 26.1875 23.964844 26.4375 23.714844 26.75 23.714844 Z M 31 24.832031 L 26.75 24.835938 L 26.75 23.714844 L 31 23.710938 L 31.03125 24.832031 Z M 31 23.710938 C 31.3125 23.710938 31.566406 23.960938 31.566406 24.273438 C 31.566406 24.585938 31.3125 24.832031 31 24.832031 Z M 32.597656 23.816406 L 32.402344 24.917969 L 32.359375 24.914062 L 32.242188 24.890625 L 32.199219 24.886719 L 32.160156 24.882812 L 32.113281 24.878906 L 32.074219 24.871094 L 32.035156 24.867188 L 31.992188 24.863281 L 31.953125 24.855469 L 31.90625 24.851562 L 31.867188 24.847656 L 31.824219 24.847656 L 31.78125 24.84375 L 31.742188 24.84375 L 31.695312 24.835938 L 31.652344 24.835938 L 31.609375 24.832031 L 31.523438 24.832031 L 31.480469 24.828125 L 31.167969 24.828125 L 31.121094 24.832031 L 31.03125 24.832031 L 30.976562 23.714844 L 31.03125 23.710938 L 31.085938 23.710938 L 31.136719 23.703125 L 31.503906 23.703125 L 31.554688 23.710938 L 31.660156 23.710938 L 31.710938 23.714844 L 31.761719 23.714844 L 31.863281 23.722656 L 31.914062 23.722656 L 31.964844 23.730469 L 32.015625 23.734375 L 32.0625 23.738281 L 32.113281 23.746094 L 32.160156 23.75 L 32.210938 23.753906 L 32.261719 23.765625 L 32.3125 23.769531 L 32.355469 23.773438 L 32.40625 23.785156 L 32.453125 23.789062 L 32.503906 23.800781 L 32.550781 23.804688 Z M 32.597656 23.816406 C 32.90625 23.871094 33.105469 24.164062 33.050781 24.464844 C 32.996094 24.773438 32.703125 24.972656 32.402344 24.917969 Z M 33.800781 24.191406 L 33.800781 25.316406 L 33.578125 25.269531 L 33.507812 25.238281 L 33.480469 25.230469 L 33.410156 25.199219 L 33.375 25.191406 L 33.339844 25.175781 L 33.304688 25.164062 L 33.269531 25.148438 L 33.238281 25.140625 L 33.203125 25.125 L 33.160156 25.113281 L 33.125 25.097656 L 33.089844 25.089844 L 33.054688 25.078125 L 33.019531 25.070312 L 32.980469 25.058594 L 32.945312 25.042969 L 32.90625 25.035156 L 32.835938 25.011719 L 32.792969 25.003906 L 32.753906 24.992188 L 32.71875 24.988281 L 32.679688 24.976562 L 32.636719 24.96875 L 32.597656 24.957031 L 32.5625 24.953125 L 32.523438 24.941406 L 32.480469 24.933594 L 32.441406 24.929688 L 32.402344 24.917969 L 32.597656 23.816406 L 32.648438 23.824219 L 32.695312 23.828125 L 32.789062 23.851562 L 32.835938 23.859375 L 32.886719 23.871094 L 32.929688 23.878906 L 32.980469 23.894531 L 33.027344 23.90625 L 33.070312 23.914062 L 33.117188 23.925781 L 33.160156 23.941406 L 33.207031 23.949219 L 33.253906 23.964844 L 33.296875 23.976562 L 33.34375 23.992188 L 33.382812 24.007812 L 33.429688 24.015625 L 33.558594 24.0625 L 33.605469 24.078125 L 33.644531 24.09375 L 33.691406 24.105469 L 33.730469 24.121094 L 33.777344 24.136719 L 33.816406 24.152344 L 33.855469 24.171875 L 33.898438 24.1875 L 33.9375 24.203125 L 33.984375 24.222656 L 34.023438 24.238281 Z M 34.023438 24.238281 C 34.304688 24.359375 34.4375 24.691406 34.316406 24.972656 C 34.195312 25.261719 33.863281 25.390625 33.578125 25.269531 Z M 33.800781 25.316406 L 33.800781 24.191406 L 34.023438 24.238281 Z M 33.800781 24.191406 C 34.113281 24.191406 34.367188 24.445312 34.367188 24.75 C 34.367188 25.0625 34.113281 25.316406 33.800781 25.316406 Z M 38.03125 28.640625 L 37.03125 29.152344 L 36.917969 28.9375 L 36.804688 28.703125 L 36.738281 28.582031 L 36.605469 28.332031 L 36.535156 28.199219 L 36.460938 28.070312 L 36.378906 27.933594 L 36.300781 27.796875 L 36.21875 27.664062 L 36.039062 27.390625 L 35.941406 27.25 L 35.839844 27.113281 L 35.734375 26.976562 L 35.625 26.839844 L 35.511719 26.710938 L 35.398438 26.578125 L 35.273438 26.449219 L 35.144531 26.324219 L 35.015625 26.195312 L 34.878906 26.074219 L 34.734375 25.960938 L 34.585938 25.847656 L 34.4375 25.738281 L 34.273438 25.636719 L 34.113281 25.535156 L 33.941406 25.441406 L 33.765625 25.351562 L 33.578125 25.269531 L 34.023438 24.238281 L 34.25 24.339844 L 34.464844 24.449219 L 34.671875 24.566406 L 34.875 24.6875 L 35.070312 24.8125 L 35.257812 24.941406 L 35.433594 25.078125 L 35.605469 25.21875 L 35.769531 25.367188 L 35.925781 25.515625 L 36.078125 25.664062 L 36.222656 25.820312 L 36.359375 25.96875 L 36.492188 26.125 L 36.617188 26.28125 L 36.738281 26.4375 L 36.964844 26.75 L 37.066406 26.90625 L 37.164062 27.0625 L 37.261719 27.214844 L 37.351562 27.363281 L 37.4375 27.511719 L 37.519531 27.652344 L 37.59375 27.792969 L 37.734375 28.066406 L 37.800781 28.191406 L 37.921875 28.425781 Z M 38.03125 28.640625 C 38.171875 28.917969 38.0625 29.253906 37.789062 29.394531 C 37.511719 29.535156 37.171875 29.429688 37.03125 29.152344 Z M 56.421875 41.277344 C 56.425781 41.589844 56.179688 41.847656 55.875 41.851562 C 55.5625 41.859375 55.304688 41.617188 55.300781 41.304688 Z M 56.242188 32.566406 L 56.421875 41.277344 L 55.300781 41.304688 L 55.117188 32.59375 Z M 55.117188 32.59375 C 55.113281 32.28125 55.359375 32.023438 55.671875 32.019531 C 55.980469 32.011719 56.234375 32.261719 56.242188 32.566406 Z M 50.105469 41.34375 C 50.179688 41.648438 49.996094 41.949219 49.695312 42.023438 C 49.390625 42.09375 49.089844 41.910156 49.015625 41.613281 Z M 48.042969 32.878906 L 50.105469 41.34375 L 49.015625 41.613281 L 46.949219 33.144531 Z M 46.949219 33.144531 C 46.875 32.84375 47.0625 32.535156 47.363281 32.464844 C 47.664062 32.390625 47.96875 32.578125 48.042969 32.878906 Z M 62.527344 41.613281 C 62.449219 41.910156 62.148438 42.09375 61.847656 42.023438 C 61.542969 41.949219 61.363281 41.648438 61.433594 41.34375 Z M 64.589844 33.144531 L 62.527344 41.613281 L 61.433594 41.34375 L 63.496094 32.878906 Z M 63.496094 32.878906 C 63.574219 32.578125 63.875 32.390625 64.175781 32.464844 C 64.480469 32.535156 64.664062 32.84375 64.589844 33.144531 Z M 65.992188 50.046875 C 66.296875 50.046875 66.550781 50.296875 66.550781 50.605469 C 66.550781 50.917969 66.296875 51.167969 65.992188 51.167969 Z M 48.972656 50.046875 L 65.992188 50.046875 L 65.992188 51.167969 L 48.972656 51.167969 Z M 48.972656 51.167969 C 48.660156 51.167969 48.414062 50.917969 48.414062 50.605469 C 48.414062 50.296875 48.660156 50.046875 48.972656 50.046875 Z M 46.582031 50.210938 L 47.34375 49.382812 L 47.386719 49.421875 L 47.433594 49.460938 L 47.484375 49.503906 L 47.535156 49.539062 L 47.578125 49.578125 L 47.628906 49.609375 L 47.683594 49.644531 L 47.734375 49.671875 L 47.785156 49.707031 L 47.839844 49.734375 L 47.890625 49.765625 L 47.945312 49.789062 L 48.003906 49.816406 L 48.054688 49.839844 L 48.164062 49.886719 L 48.273438 49.925781 L 48.324219 49.941406 L 48.433594 49.972656 L 48.484375 49.984375 L 48.542969 49.996094 L 48.589844 50.007812 L 48.640625 50.015625 L 48.691406 50.027344 L 48.792969 50.035156 L 48.839844 50.042969 L 48.882812 50.042969 L 48.929688 50.046875 L 48.972656 50.046875 L 48.972656 51.167969 L 48.902344 51.167969 L 48.753906 51.160156 L 48.683594 51.152344 L 48.605469 51.144531 L 48.53125 51.132812 L 48.457031 51.125 L 48.378906 51.109375 L 48.304688 51.09375 L 48.222656 51.078125 L 48.074219 51.039062 L 47.996094 51.011719 L 47.917969 50.988281 L 47.839844 50.960938 L 47.765625 50.933594 L 47.683594 50.902344 L 47.609375 50.871094 L 47.535156 50.835938 L 47.457031 50.800781 L 47.300781 50.722656 L 47.152344 50.636719 L 47.082031 50.589844 L 47.003906 50.542969 L 46.933594 50.496094 L 46.859375 50.4375 L 46.789062 50.390625 L 46.71875 50.328125 L 46.652344 50.273438 Z M 46.582031 50.210938 C 46.355469 50 46.339844 49.644531 46.546875 49.417969 C 46.757812 49.191406 47.117188 49.175781 47.34375 49.382812 Z M 45.472656 47.972656 L 46.59375 47.855469 L 46.597656 47.921875 L 46.609375 47.980469 L 46.617188 48.042969 L 46.628906 48.101562 L 46.636719 48.164062 L 46.652344 48.21875 L 46.683594 48.335938 L 46.71875 48.441406 L 46.738281 48.488281 L 46.757812 48.546875 L 46.777344 48.597656 L 46.800781 48.640625 L 46.824219 48.691406 L 46.847656 48.738281 L 46.875 48.789062 L 46.898438 48.832031 L 46.925781 48.878906 L 46.949219 48.917969 L 46.980469 48.964844 L 47.011719 49.003906 L 47.039062 49.050781 L 47.101562 49.128906 L 47.136719 49.164062 L 47.167969 49.207031 L 47.238281 49.277344 L 47.273438 49.316406 L 47.308594 49.351562 L 47.34375 49.382812 L 46.582031 50.210938 L 46.53125 50.160156 L 46.476562 50.113281 L 46.425781 50.054688 L 46.375 50.007812 L 46.324219 49.949219 L 46.273438 49.894531 L 46.230469 49.835938 L 46.183594 49.773438 L 46.140625 49.714844 L 46.09375 49.652344 L 46.046875 49.59375 L 45.96875 49.460938 L 45.925781 49.390625 L 45.886719 49.324219 L 45.851562 49.253906 L 45.8125 49.183594 L 45.78125 49.113281 L 45.746094 49.039062 L 45.714844 48.964844 L 45.6875 48.886719 L 45.65625 48.8125 L 45.628906 48.730469 L 45.605469 48.652344 L 45.585938 48.570312 L 45.558594 48.488281 L 45.546875 48.40625 L 45.523438 48.320312 L 45.507812 48.234375 L 45.496094 48.148438 L 45.484375 48.058594 Z M 45.472656 47.972656 C 45.445312 47.660156 45.664062 47.386719 45.976562 47.355469 C 46.285156 47.320312 46.5625 47.546875 46.59375 47.855469 Z M 46.429688 46.253906 L 46.59375 47.855469 L 45.472656 47.972656 L 45.3125 46.371094 Z M 45.3125 46.371094 C 45.277344 46.058594 45.503906 45.785156 45.8125 45.75 C 46.125 45.71875 46.394531 45.945312 46.429688 46.253906 Z M 72.628906 28.214844 L 38.339844 27.410156 L 38.363281 26.289062 L 72.652344 27.09375 L 72.703125 27.097656 Z M 72.652344 27.09375 C 72.964844 27.097656 73.207031 27.355469 73.203125 27.667969 C 73.191406 27.980469 72.933594 28.222656 72.628906 28.214844 Z M 74.109375 28.875 L 72.996094 28.746094 L 72.996094 28.644531 L 72.988281 28.625 L 72.988281 28.597656 L 72.984375 28.578125 L 72.980469 28.554688 L 72.96875 28.535156 L 72.964844 28.507812 L 72.953125 28.488281 L 72.945312 28.46875 L 72.933594 28.449219 L 72.917969 28.425781 L 72.910156 28.40625 L 72.894531 28.390625 L 72.878906 28.371094 L 72.863281 28.355469 L 72.847656 28.34375 L 72.828125 28.320312 L 72.8125 28.308594 L 72.792969 28.296875 L 72.773438 28.28125 L 72.753906 28.273438 L 72.714844 28.25 L 72.691406 28.242188 L 72.667969 28.230469 L 72.648438 28.226562 L 72.621094 28.222656 L 72.597656 28.214844 L 72.570312 28.210938 L 72.703125 27.097656 L 72.789062 27.109375 L 72.863281 27.125 L 72.945312 27.144531 L 73.019531 27.164062 L 73.097656 27.195312 L 73.171875 27.222656 L 73.242188 27.257812 L 73.308594 27.292969 L 73.378906 27.335938 L 73.441406 27.378906 L 73.503906 27.425781 L 73.621094 27.527344 L 73.675781 27.578125 L 73.726562 27.636719 L 73.777344 27.699219 L 73.820312 27.757812 L 73.867188 27.816406 L 73.90625 27.882812 L 73.976562 28.023438 L 74.007812 28.09375 L 74.03125 28.164062 L 74.058594 28.242188 L 74.078125 28.316406 L 74.09375 28.390625 L 74.109375 28.472656 L 74.113281 28.554688 L 74.117188 28.632812 L 74.117188 28.796875 Z M 74.109375 28.875 C 74.074219 29.183594 73.789062 29.40625 73.484375 29.371094 C 73.175781 29.328125 72.953125 29.050781 72.996094 28.746094 Z M 73.992188 29.289062 L 72.894531 29.046875 L 72.945312 28.90625 L 72.949219 28.894531 L 72.949219 28.890625 L 72.953125 28.890625 L 72.953125 28.882812 L 72.960938 28.875 L 72.960938 28.871094 L 72.964844 28.867188 L 72.964844 28.855469 L 72.96875 28.851562 L 72.96875 28.839844 L 72.976562 28.835938 L 72.976562 28.824219 L 72.980469 28.820312 L 72.980469 28.804688 L 72.984375 28.800781 L 72.984375 28.78125 L 72.988281 28.78125 L 72.988281 28.75 L 72.996094 28.746094 L 74.109375 28.875 L 74.109375 28.890625 L 74.101562 28.910156 L 74.101562 28.929688 L 74.097656 28.953125 L 74.097656 28.964844 L 74.09375 28.980469 L 74.085938 29 L 74.082031 29.023438 L 74.082031 29.035156 L 74.078125 29.058594 L 74.066406 29.09375 L 74.0625 29.113281 L 74.058594 29.128906 L 74.050781 29.144531 L 74.046875 29.164062 L 74.042969 29.179688 L 74.039062 29.199219 L 74.03125 29.214844 L 74.027344 29.226562 L 74.015625 29.25 L 74.011719 29.261719 L 74.007812 29.277344 L 73.996094 29.300781 L 73.992188 29.3125 L 73.988281 29.328125 L 73.976562 29.34375 L 73.972656 29.363281 L 73.960938 29.378906 L 73.957031 29.394531 L 73.945312 29.410156 L 73.941406 29.425781 Z M 73.941406 29.425781 C 73.796875 29.703125 73.457031 29.808594 73.179688 29.667969 C 72.910156 29.519531 72.796875 29.183594 72.945312 28.90625 Z M 69.691406 43.6875 L 72.894531 29.046875 L 73.992188 29.289062 L 70.789062 43.929688 L 70.765625 44.019531 Z M 70.789062 43.929688 C 70.722656 44.230469 70.425781 44.421875 70.121094 44.355469 C 69.816406 44.289062 69.625 43.988281 69.691406 43.6875 Z M 68.546875 46.761719 L 67.925781 45.828125 L 67.996094 45.777344 L 68.070312 45.726562 L 68.140625 45.675781 L 68.210938 45.621094 L 68.277344 45.5625 L 68.347656 45.507812 L 68.414062 45.449219 L 68.476562 45.386719 L 68.542969 45.328125 L 68.675781 45.203125 L 68.734375 45.140625 L 68.796875 45.074219 L 68.855469 45.003906 L 68.910156 44.941406 L 68.972656 44.871094 L 69.027344 44.800781 L 69.136719 44.652344 L 69.1875 44.578125 L 69.238281 44.5 L 69.339844 44.351562 L 69.390625 44.269531 L 69.433594 44.191406 L 69.480469 44.109375 L 69.523438 44.023438 L 69.566406 43.941406 L 69.605469 43.855469 L 69.644531 43.773438 L 69.6875 43.679688 L 69.722656 43.59375 L 70.765625 44.019531 L 70.71875 44.125 L 70.667969 44.230469 L 70.625 44.335938 L 70.574219 44.441406 L 70.523438 44.542969 L 70.46875 44.644531 L 70.410156 44.742188 L 70.355469 44.839844 L 70.296875 44.933594 L 70.234375 45.03125 L 70.175781 45.125 L 70.109375 45.222656 L 70.050781 45.3125 L 69.980469 45.402344 L 69.914062 45.488281 L 69.703125 45.746094 L 69.625 45.832031 L 69.476562 45.988281 L 69.320312 46.144531 L 69.15625 46.292969 L 69.070312 46.363281 L 68.988281 46.4375 L 68.90625 46.5 L 68.816406 46.570312 L 68.730469 46.636719 L 68.640625 46.699219 Z M 68.546875 46.761719 C 68.292969 46.933594 67.945312 46.863281 67.769531 46.605469 C 67.597656 46.351562 67.667969 46.003906 67.925781 45.828125 Z M 65.179688 47.773438 L 65.179688 46.652344 L 65.273438 46.652344 L 65.367188 46.648438 L 65.460938 46.640625 L 65.558594 46.636719 L 65.648438 46.632812 L 65.742188 46.621094 L 65.835938 46.613281 L 66.195312 46.550781 L 66.289062 46.53125 L 66.371094 46.511719 L 66.464844 46.484375 L 66.636719 46.4375 L 66.71875 46.410156 L 66.804688 46.378906 L 66.890625 46.351562 L 66.976562 46.320312 L 67.058594 46.289062 L 67.144531 46.253906 L 67.222656 46.21875 L 67.304688 46.179688 L 67.386719 46.136719 L 67.621094 46.019531 L 67.699219 45.972656 L 67.773438 45.921875 L 67.847656 45.875 L 67.925781 45.828125 L 68.546875 46.761719 L 68.457031 46.824219 L 68.175781 46.988281 L 68.082031 47.046875 L 67.984375 47.09375 L 67.882812 47.144531 L 67.789062 47.195312 L 67.6875 47.242188 L 67.484375 47.328125 L 67.378906 47.367188 L 67.28125 47.40625 L 67.171875 47.441406 L 66.960938 47.511719 L 66.75 47.574219 L 66.640625 47.597656 L 66.527344 47.625 L 66.421875 47.648438 L 66.3125 47.667969 L 66.203125 47.691406 L 66.089844 47.710938 L 65.976562 47.726562 L 65.863281 47.734375 L 65.753906 47.75 L 65.636719 47.761719 L 65.296875 47.773438 Z M 65.179688 47.773438 C 64.867188 47.773438 64.617188 47.523438 64.617188 47.210938 C 64.617188 46.902344 64.867188 46.652344 65.179688 46.652344 Z M 48.925781 46.652344 L 65.179688 46.652344 L 65.179688 47.773438 L 48.925781 47.773438 Z M 48.925781 47.773438 C 48.613281 47.773438 48.359375 47.523438 48.359375 47.210938 C 48.359375 46.902344 48.613281 46.652344 48.925781 46.652344 Z M 45.582031 46.78125 L 46.199219 45.847656 L 46.273438 45.890625 L 46.351562 45.941406 L 46.425781 45.988281 L 46.5 46.027344 L 46.578125 46.074219 L 46.65625 46.113281 L 46.738281 46.152344 L 46.8125 46.1875 L 46.894531 46.230469 L 46.976562 46.265625 L 47.0625 46.292969 L 47.140625 46.328125 L 47.222656 46.359375 L 47.308594 46.390625 L 47.394531 46.414062 L 47.480469 46.441406 L 47.5625 46.464844 L 47.648438 46.492188 L 47.734375 46.511719 L 47.824219 46.53125 L 47.910156 46.550781 L 48.003906 46.566406 L 48.273438 46.613281 L 48.363281 46.621094 L 48.457031 46.632812 L 48.546875 46.636719 L 48.640625 46.640625 L 48.734375 46.648438 L 48.828125 46.652344 L 48.925781 46.652344 L 48.925781 47.773438 L 48.808594 47.773438 L 48.691406 47.769531 L 48.582031 47.765625 L 48.464844 47.761719 L 48.246094 47.738281 L 48.132812 47.726562 L 48.023438 47.710938 L 47.910156 47.695312 L 47.800781 47.675781 L 47.691406 47.652344 L 47.585938 47.628906 L 47.472656 47.605469 L 47.367188 47.578125 L 47.261719 47.546875 L 47.15625 47.519531 L 47.050781 47.488281 L 46.945312 47.453125 L 46.84375 47.417969 L 46.742188 47.378906 L 46.636719 47.335938 L 46.535156 47.296875 L 46.4375 47.25 L 46.339844 47.207031 L 46.238281 47.160156 L 46.144531 47.109375 L 46.046875 47.058594 L 45.953125 47.007812 L 45.855469 46.953125 L 45.765625 46.898438 L 45.671875 46.84375 Z M 45.582031 46.78125 C 45.324219 46.613281 45.253906 46.265625 45.425781 46.003906 C 45.59375 45.746094 45.941406 45.675781 46.199219 45.847656 Z M 43.371094 44.089844 L 44.402344 43.652344 L 44.4375 43.742188 L 44.476562 43.828125 L 44.519531 43.90625 L 44.5625 43.992188 L 44.601562 44.074219 L 44.648438 44.160156 L 44.695312 44.238281 L 44.738281 44.316406 L 44.839844 44.472656 L 44.941406 44.621094 L 44.992188 44.691406 L 45.046875 44.765625 L 45.15625 44.90625 L 45.21875 44.976562 L 45.273438 45.039062 L 45.332031 45.105469 L 45.394531 45.171875 L 45.519531 45.296875 L 45.585938 45.359375 L 45.652344 45.417969 L 45.714844 45.472656 L 45.78125 45.535156 L 45.847656 45.589844 L 45.917969 45.640625 L 45.988281 45.695312 L 46.199219 45.847656 L 45.582031 46.78125 L 45.496094 46.722656 L 45.402344 46.664062 L 45.316406 46.597656 L 45.226562 46.53125 L 45.148438 46.460938 L 45.0625 46.394531 L 44.976562 46.324219 L 44.894531 46.253906 L 44.816406 46.179688 L 44.738281 46.101562 L 44.660156 46.027344 L 44.582031 45.945312 L 44.507812 45.871094 L 44.4375 45.785156 L 44.363281 45.707031 L 44.292969 45.621094 L 44.226562 45.535156 L 44.15625 45.449219 L 44.089844 45.363281 L 43.957031 45.183594 L 43.898438 45.085938 L 43.835938 44.996094 L 43.777344 44.898438 L 43.722656 44.804688 L 43.667969 44.703125 L 43.609375 44.609375 L 43.5625 44.507812 L 43.511719 44.402344 L 43.460938 44.300781 L 43.414062 44.195312 Z M 43.371094 44.089844 C 43.242188 43.808594 43.378906 43.472656 43.667969 43.355469 C 43.949219 43.234375 44.28125 43.367188 44.402344 43.652344 Z M 37.789062 28.066406 L 44.402344 43.652344 L 43.371094 44.089844 L 36.753906 28.503906 Z M 36.753906 28.503906 C 36.632812 28.222656 36.765625 27.890625 37.054688 27.769531 C 37.335938 27.648438 37.667969 27.777344 37.789062 28.066406 Z M 37.609375 26.410156 L 38.042969 27.445312 L 38.019531 27.457031 L 37.996094 27.464844 L 37.976562 27.476562 L 37.957031 27.492188 L 37.941406 27.507812 L 37.921875 27.515625 L 37.855469 27.582031 L 37.820312 27.640625 L 37.804688 27.664062 L 37.792969 27.683594 L 37.789062 27.703125 L 37.78125 27.722656 L 37.769531 27.746094 L 37.765625 27.769531 L 37.757812 27.792969 L 37.753906 27.8125 L 37.753906 27.859375 L 37.75 27.882812 L 37.753906 27.902344 L 37.753906 27.949219 L 37.757812 27.972656 L 37.765625 28 L 37.773438 28.019531 L 37.78125 28.046875 L 37.789062 28.066406 L 36.753906 28.503906 L 36.722656 28.425781 L 36.695312 28.351562 L 36.65625 28.195312 L 36.648438 28.117188 L 36.636719 28.039062 L 36.632812 27.960938 L 36.625 27.878906 L 36.632812 27.804688 L 36.636719 27.726562 L 36.648438 27.648438 L 36.65625 27.570312 L 36.675781 27.496094 L 36.695312 27.425781 L 36.722656 27.351562 L 36.746094 27.28125 L 36.777344 27.210938 L 36.8125 27.136719 L 36.847656 27.074219 L 36.886719 27.007812 L 36.933594 26.941406 L 36.980469 26.882812 L 37.03125 26.820312 L 37.140625 26.710938 L 37.195312 26.660156 L 37.261719 26.609375 L 37.320312 26.5625 L 37.390625 26.519531 L 37.460938 26.480469 L 37.53125 26.445312 Z M 37.609375 26.410156 C 37.894531 26.289062 38.222656 26.421875 38.34375 26.710938 C 38.464844 26.992188 38.328125 27.324219 38.042969 27.445312 Z M 37.789062 26.8125 L 38.914062 26.890625 L 38.285156 27.410156 L 38.277344 27.410156 L 38.269531 27.40625 L 38.1875 27.40625 L 38.175781 27.410156 L 38.148438 27.410156 L 38.140625 27.414062 L 38.128906 27.414062 L 38.117188 27.421875 L 38.105469 27.421875 L 38.097656 27.425781 L 38.085938 27.425781 L 38.082031 27.429688 L 38.070312 27.429688 L 38.066406 27.4375 L 38.058594 27.4375 L 38.042969 27.445312 L 37.609375 26.410156 L 37.628906 26.398438 L 37.660156 26.386719 L 37.683594 26.378906 L 37.710938 26.367188 L 37.730469 26.363281 L 37.757812 26.351562 L 37.78125 26.347656 L 37.804688 26.335938 L 37.835938 26.332031 L 37.859375 26.328125 L 37.886719 26.324219 L 37.910156 26.3125 L 37.9375 26.308594 L 37.960938 26.308594 L 37.984375 26.300781 L 38.011719 26.296875 L 38.035156 26.292969 L 38.0625 26.292969 L 38.085938 26.289062 L 38.136719 26.289062 L 38.167969 26.28125 L 38.292969 26.28125 L 38.320312 26.289062 L 38.367188 26.289062 L 38.390625 26.292969 L 38.414062 26.292969 Z M 38.414062 26.292969 C 38.726562 26.332031 38.941406 26.609375 38.90625 26.917969 C 38.871094 27.222656 38.589844 27.445312 38.285156 27.410156 Z M 38.914062 26.886719 L 38.914062 26.890625 L 37.789062 26.8125 L 37.789062 26.804688 L 38.363281 26.289062 Z M 37.789062 26.804688 C 37.808594 26.5 38.082031 26.265625 38.390625 26.289062 C 38.703125 26.3125 38.933594 26.578125 38.914062 26.886719 Z M 37.789062 26.804688 " fill-opacity="1" fill-rule="nonzero"/><g clip-path="url(#7a27859fe9)"><path fill="#009444" d="M 50.632812 51.976562 C 51.410156 51.976562 52.117188 52.292969 52.636719 52.804688 L 52.640625 52.8125 C 53.148438 53.324219 53.464844 54.035156 53.464844 54.808594 C 53.464844 55.589844 53.148438 56.300781 52.636719 56.8125 C 52.121094 57.328125 51.410156 57.644531 50.632812 57.644531 C 49.851562 57.644531 49.144531 57.328125 48.632812 56.8125 L 48.625 56.8125 C 48.113281 56.300781 47.796875 55.589844 47.796875 54.808594 C 47.796875 54.03125 48.113281 53.324219 48.625 52.8125 L 48.632812 52.804688 C 49.144531 52.292969 49.851562 51.976562 50.632812 51.976562 Z M 54.839844 20.945312 C 54.40625 19.792969 53.914062 18.714844 53.390625 17.726562 C 52.976562 17.929688 52.539062 18.089844 52.089844 18.203125 C 50.902344 18.511719 49.628906 18.503906 48.40625 18.144531 C 48.078125 18.042969 47.886719 17.703125 47.988281 17.367188 C 48.082031 17.042969 48.429688 16.855469 48.757812 16.949219 C 49.761719 17.25 50.800781 17.253906 51.777344 17 C 52.121094 16.910156 52.460938 16.789062 52.78125 16.640625 C 50.703125 13.175781 48.238281 11.15625 46.476562 11.800781 C 44.019531 12.691406 43.84375 18.394531 46.078125 24.535156 C 46.199219 24.871094 46.332031 25.210938 46.460938 25.535156 L 56.199219 25.765625 C 55.988281 24.605469 55.675781 23.382812 55.265625 22.132812 C 54.78125 22.390625 54.265625 22.589844 53.738281 22.726562 C 52.550781 23.035156 51.277344 23.023438 50.050781 22.667969 C 49.726562 22.566406 49.539062 22.222656 49.632812 21.890625 C 49.730469 21.5625 50.078125 21.378906 50.40625 21.472656 C 51.40625 21.769531 52.453125 21.773438 53.425781 21.523438 C 53.917969 21.398438 54.398438 21.203125 54.839844 20.945312 Z M 60.867188 25.875 L 59.1875 22.953125 L 61.523438 22.179688 C 61.785156 22.09375 61.929688 21.804688 61.847656 21.542969 C 61.761719 21.28125 61.472656 21.136719 61.210938 21.222656 L 58.777344 22.03125 C 58.742188 22.042969 58.714844 22.050781 58.683594 22.074219 L 58.492188 21.738281 C 58.003906 20.890625 57.9375 19.953125 58.300781 19.039062 C 58.664062 18.128906 59.359375 17.496094 60.300781 17.21875 L 61.46875 16.871094 C 62.410156 16.589844 63.335938 16.738281 64.140625 17.304688 C 64.941406 17.871094 65.402344 18.695312 65.457031 19.671875 L 65.75 24.984375 C 65.707031 24.984375 65.667969 24.992188 65.621094 25.007812 L 63.191406 25.8125 C 63.113281 25.835938 63.054688 25.875 63 25.925781 Z M 59.695312 16.644531 C 58.992188 15.847656 58.097656 15.324219 57.03125 15.074219 C 56.945312 15.050781 56.878906 15.007812 56.839844 14.933594 C 56.800781 14.855469 56.789062 14.777344 56.816406 14.695312 C 56.929688 14.316406 57.132812 13.964844 57.394531 13.667969 C 57.46875 13.585938 57.574219 13.550781 57.6875 13.578125 C 58.585938 13.792969 59.230469 14.214844 59.628906 14.847656 C 58.863281 13.761719 58.488281 12.878906 58.496094 12.183594 C 58.496094 12.0625 58.574219 11.957031 58.6875 11.910156 C 59.070312 11.765625 59.488281 11.722656 59.898438 11.792969 C 60.027344 11.820312 60.125 11.921875 60.136719 12.054688 C 60.195312 12.585938 60.304688 13.234375 60.480469 14.003906 C 60.5 13.117188 60.914062 12.296875 61.605469 11.753906 C 61.679688 11.695312 61.769531 11.671875 61.867188 11.699219 C 62.191406 11.785156 62.503906 11.929688 62.78125 12.125 C 62.914062 12.21875 62.949219 12.398438 62.859375 12.535156 C 62.109375 13.65625 61.753906 14.820312 61.800781 16.035156 C 61.621094 16.058594 61.4375 16.101562 61.257812 16.15625 L 60.089844 16.503906 C 59.953125 16.542969 59.820312 16.589844 59.695312 16.644531 Z M 63.683594 51.976562 C 64.460938 51.976562 65.167969 52.292969 65.683594 52.804688 L 65.6875 52.8125 C 66.203125 53.328125 66.519531 54.035156 66.519531 54.808594 C 66.519531 55.589844 66.203125 56.300781 65.6875 56.8125 L 65.683594 56.8125 C 65.167969 57.328125 64.464844 57.644531 63.683594 57.644531 C 62.902344 57.644531 62.191406 57.328125 61.679688 56.8125 C 61.164062 56.300781 60.847656 55.589844 60.847656 54.808594 C 60.847656 54.03125 61.164062 53.324219 61.679688 52.8125 L 61.679688 52.804688 C 62.191406 52.292969 62.902344 51.976562 63.683594 51.976562 Z M 63.683594 51.976562 " fill-opacity="1" fill-rule="evenodd"/></g><g fill="#009444" fill-opacity="1"><g transform="translate(25.191321, 80.709878)"><g><path d="M 0.984375 -11.40625 L 6.171875 -7.265625 L 0.984375 -3.109375 L 0.984375 -5.1875 L 4.09375 -7.265625 L 0.984375 -9.328125 Z M 0.984375 -11.40625 "/></g></g></g><g fill="#009444" fill-opacity="1"><g transform="translate(31.662495, 80.709878)"><g/></g></g><g fill="#009444" fill-opacity="1"><g transform="translate(37.599355, 80.709878)"><g><path d="M 9.796875 -8.8125 C 10.179688 -8.601562 10.523438 -8.328125 10.828125 -7.984375 C 11.085938 -7.691406 11.332031 -7.3125 11.5625 -6.84375 C 11.769531 -6.382812 11.875 -5.832031 11.875 -5.1875 C 11.875 -4.40625 11.75 -3.695312 11.5 -3.0625 C 11.238281 -2.4375 10.867188 -1.894531 10.390625 -1.4375 C 9.898438 -0.976562 9.304688 -0.625 8.609375 -0.375 C 7.898438 -0.125 7.085938 0 6.171875 0 L 0.984375 0 L 0.984375 -14.515625 L 6.171875 -14.515625 C 7.085938 -14.515625 7.84375 -14.398438 8.4375 -14.171875 C 9.03125 -13.929688 9.503906 -13.632812 9.859375 -13.28125 C 10.210938 -12.925781 10.460938 -12.535156 10.609375 -12.109375 C 10.753906 -11.679688 10.828125 -11.273438 10.828125 -10.890625 C 10.828125 -10.515625 10.773438 -10.195312 10.671875 -9.9375 C 10.554688 -9.675781 10.429688 -9.460938 10.296875 -9.296875 C 10.160156 -9.128906 10.039062 -9.003906 9.9375 -8.921875 C 9.832031 -8.847656 9.785156 -8.8125 9.796875 -8.8125 Z M 7.203125 -10.890625 C 7.203125 -11.398438 7.054688 -11.789062 6.765625 -12.0625 C 6.460938 -12.3125 5.914062 -12.4375 5.125 -12.4375 L 5.125 -9.328125 C 5.914062 -9.328125 6.460938 -9.457031 6.765625 -9.71875 C 7.054688 -9.96875 7.203125 -10.359375 7.203125 -10.890625 Z M 5.125 -2.078125 C 5.644531 -2.078125 6.078125 -2.164062 6.421875 -2.34375 C 6.742188 -2.507812 7.003906 -2.722656 7.203125 -2.984375 C 7.398438 -3.234375 7.539062 -3.515625 7.625 -3.828125 C 7.6875 -4.128906 7.71875 -4.410156 7.71875 -4.671875 C 7.71875 -4.921875 7.6875 -5.195312 7.625 -5.5 C 7.539062 -5.800781 7.398438 -6.085938 7.203125 -6.359375 C 7.003906 -6.609375 6.742188 -6.816406 6.421875 -6.984375 C 6.078125 -7.160156 5.644531 -7.25 5.125 -7.25 Z M 5.125 -2.078125 "/></g></g></g><g fill="#009444" fill-opacity="1"><g transform="translate(50.066757, 80.709878)"><g><path d="M 7.5 -4.140625 L 4.6875 -4.140625 L 3.5 0 L 0.390625 0 L 4.53125 -14.515625 L 8.6875 -14.515625 L 12.828125 0 L 8.6875 0 Z M 6.90625 -6.21875 L 6.09375 -9.0625 L 5.28125 -6.21875 Z M 6.90625 -6.21875 "/></g></g></g><g fill="#009444" fill-opacity="1"><g transform="translate(63.286157, 80.709878)"><g><path d="M 0.984375 -3.09375 L 1.1875 -3.4375 C 1.300781 -3.675781 1.46875 -3.988281 1.6875 -4.375 C 1.882812 -4.757812 2.113281 -5.203125 2.375 -5.703125 C 2.632812 -6.191406 2.90625 -6.691406 3.1875 -7.203125 C 3.46875 -7.722656 3.742188 -8.234375 4.015625 -8.734375 C 4.285156 -9.222656 4.523438 -9.664062 4.734375 -10.0625 C 4.941406 -10.457031 5.113281 -10.78125 5.25 -11.03125 C 5.363281 -11.269531 5.425781 -11.394531 5.4375 -11.40625 L 0.984375 -11.40625 L 0.984375 -14.515625 L 10.109375 -14.515625 L 10.109375 -11.421875 C 10.078125 -11.359375 9.945312 -11.109375 9.71875 -10.671875 C 9.476562 -10.234375 9.195312 -9.710938 8.875 -9.109375 C 8.539062 -8.484375 8.1875 -7.828125 7.8125 -7.140625 L 6.796875 -5.203125 C 6.472656 -4.609375 6.207031 -4.113281 6 -3.71875 C 5.769531 -3.320312 5.65625 -3.117188 5.65625 -3.109375 L 10.109375 -3.109375 L 10.109375 0 L 0.984375 0 Z M 0.984375 -3.09375 "/></g></g></g><g fill="#009444" fill-opacity="1"><g transform="translate(74.388082, 80.709878)"><g/></g></g><g fill="#009444" fill-opacity="1"><g transform="translate(80.324942, 80.709878)"><g><path d="M 5.484375 -9.328125 L 2.375 -7.265625 L 5.484375 -5.1875 L 5.484375 -3.109375 L 0.296875 -7.265625 L 5.484375 -11.40625 Z M 5.484375 -9.328125 "/></g></g></g></svg>