<svg xmlns="http://www.w3.org/2000/svg" xmlns:xlink="http://www.w3.org/1999/xlink" width="200" zoomAndPan="magnify" viewBox="0 0 150 149.999998" height="200" preserveAspectRatio="xMidYMid meet" version="1.0"><defs><g/><clipPath id="08cc1653c0"><path d="M 59 15 L 90 15 L 90 77.25 L 59 77.25 Z M 59 15 " clip-rule="nonzero"/></clipPath></defs><g fill="#000000" fill-opacity="1"><g transform="translate(52.830744, 122.059426)"><g><path d="M 8.78125 0 L 8.78125 -7.421875 L 6.546875 -7.421875 L 4.75 -2.796875 L 2.953125 -7.421875 L 0.734375 -7.421875 L 0.734375 0 L 2.3125 0 L 2.3125 -5.34375 L 4.40625 0 L 5.09375 0 L 7.1875 -5.34375 L 7.1875 0 Z M 8.78125 0 "/></g></g></g><g fill="#000000" fill-opacity="1"><g transform="translate(62.346822, 122.059426)"><g><path d="M 7.65625 0 L 4.796875 -7.421875 L 2.8125 -7.421875 L -0.0625 0 L 1.6875 0 L 2.140625 -1.28125 L 5.46875 -1.28125 L 5.921875 0 Z M 5.03125 -2.640625 L 2.5625 -2.640625 L 3.8125 -6.046875 Z M 5.03125 -2.640625 "/></g></g></g><g fill="#000000" fill-opacity="1"><g transform="translate(69.95969, 122.059426)"><g><path d="M 6.734375 0 L 5.078125 -2.828125 C 5.875 -3.015625 6.703125 -3.71875 6.703125 -5.03125 C 6.703125 -6.40625 5.75 -7.421875 4.203125 -7.421875 L 0.734375 -7.421875 L 0.734375 0 L 2.3125 0 L 2.3125 -2.65625 L 3.46875 -2.65625 L 4.921875 0 Z M 5.078125 -5.046875 C 5.078125 -4.421875 4.609375 -4.015625 3.96875 -4.015625 L 2.3125 -4.015625 L 2.3125 -6.0625 L 3.96875 -6.0625 C 4.609375 -6.0625 5.078125 -5.65625 5.078125 -5.046875 Z M 5.078125 -5.046875 "/></g></g></g><g fill="#000000" fill-opacity="1"><g transform="translate(77.11623, 122.059426)"><g><path d="M 7.09375 0 L 3.9375 -3.9375 L 6.890625 -7.421875 L 4.9375 -7.421875 L 2.3125 -4.109375 L 2.3125 -7.421875 L 0.734375 -7.421875 L 0.734375 0 L 2.3125 0 L 2.3125 -2.28125 L 2.890625 -2.96875 L 5.140625 0 Z M 7.09375 0 "/></g></g></g><g fill="#000000" fill-opacity="1"><g transform="translate(84.194863, 122.059426)"><g><path d="M 5.984375 0 L 5.984375 -1.375 L 2.3125 -1.375 L 2.3125 -3.09375 L 5.90625 -3.09375 L 5.90625 -4.453125 L 2.3125 -4.453125 L 2.3125 -6.0625 L 5.984375 -6.0625 L 5.984375 -7.421875 L 0.734375 -7.421875 L 0.734375 0 Z M 5.984375 0 "/></g></g></g><g fill="#000000" fill-opacity="1"><g transform="translate(90.683603, 122.059426)"><g><path d="M 4.03125 0 L 4.03125 -6.03125 L 6.203125 -6.03125 L 6.203125 -7.421875 L 0.28125 -7.421875 L 0.28125 -6.03125 L 2.453125 -6.03125 L 2.453125 0 Z M 4.03125 0 "/></g></g></g><path fill="#000000" d="M 35.828125 33.265625 C 35.410156 33.265625 35.070312 32.925781 35.070312 32.507812 C 35.070312 32.097656 35.410156 31.761719 35.828125 31.761719 Z M 41.519531 33.257812 L 35.828125 33.265625 L 35.828125 31.761719 L 41.519531 31.753906 L 41.558594 33.257812 Z M 41.519531 31.753906 C 41.9375 31.753906 42.273438 32.089844 42.273438 32.507812 C 42.273438 32.925781 41.9375 33.257812 41.519531 33.257812 Z M 43.65625 31.894531 L 43.394531 33.371094 L 43.339844 33.367188 L 43.285156 33.359375 L 43.234375 33.34375 L 43.179688 33.339844 L 43.070312 33.324219 L 43.011719 33.320312 L 42.847656 33.296875 L 42.792969 33.292969 L 42.734375 33.285156 L 42.679688 33.277344 L 42.617188 33.277344 L 42.566406 33.269531 L 42.511719 33.269531 L 42.449219 33.265625 L 42.390625 33.265625 L 42.335938 33.257812 L 42.222656 33.257812 L 42.160156 33.25 L 41.742188 33.25 L 41.679688 33.257812 L 41.558594 33.257812 L 41.484375 31.761719 L 41.558594 31.753906 L 41.632812 31.753906 L 41.703125 31.746094 L 42.195312 31.746094 L 42.261719 31.753906 L 42.402344 31.753906 L 42.46875 31.761719 L 42.539062 31.761719 L 42.605469 31.765625 L 42.671875 31.773438 L 42.742188 31.773438 L 42.875 31.789062 L 42.941406 31.792969 L 43.011719 31.800781 L 43.070312 31.808594 L 43.136719 31.8125 L 43.207031 31.828125 L 43.273438 31.835938 L 43.332031 31.839844 L 43.402344 31.855469 L 43.460938 31.863281 L 43.53125 31.875 L 43.597656 31.882812 Z M 43.65625 31.894531 C 44.070312 31.96875 44.339844 32.359375 44.265625 32.765625 C 44.191406 33.175781 43.800781 33.445312 43.394531 33.371094 Z M 45.269531 32.402344 L 45.269531 33.90625 L 44.972656 33.84375 L 44.878906 33.804688 L 44.835938 33.789062 L 44.742188 33.75 L 44.695312 33.738281 L 44.648438 33.714844 L 44.601562 33.703125 L 44.554688 33.683594 L 44.515625 33.667969 L 44.46875 33.648438 L 44.414062 33.636719 L 44.367188 33.613281 L 44.320312 33.601562 L 44.269531 33.589844 L 44.222656 33.574219 L 44.171875 33.5625 L 44.121094 33.542969 L 44.070312 33.527344 L 44.023438 33.515625 L 43.972656 33.5 L 43.921875 33.488281 L 43.867188 33.472656 L 43.820312 33.46875 L 43.765625 33.453125 L 43.710938 33.441406 L 43.65625 33.425781 L 43.609375 33.417969 L 43.554688 33.40625 L 43.503906 33.394531 L 43.449219 33.386719 L 43.394531 33.371094 L 43.65625 31.894531 L 43.726562 31.910156 L 43.785156 31.914062 L 43.851562 31.929688 L 43.914062 31.941406 L 43.972656 31.957031 L 44.042969 31.96875 L 44.101562 31.984375 L 44.171875 32.003906 L 44.230469 32.015625 L 44.292969 32.03125 L 44.351562 32.042969 L 44.414062 32.0625 L 44.472656 32.078125 L 44.535156 32.097656 L 44.59375 32.109375 L 44.65625 32.132812 L 44.710938 32.152344 L 44.769531 32.164062 L 44.832031 32.183594 L 44.886719 32.207031 L 44.945312 32.226562 L 45.007812 32.246094 L 45.058594 32.265625 L 45.121094 32.285156 L 45.175781 32.308594 L 45.234375 32.328125 L 45.289062 32.347656 L 45.34375 32.375 L 45.453125 32.414062 L 45.511719 32.441406 L 45.566406 32.460938 Z M 45.566406 32.460938 C 45.945312 32.625 46.121094 33.070312 45.957031 33.445312 C 45.796875 33.832031 45.351562 34.007812 44.972656 33.84375 Z M 45.269531 33.90625 L 45.269531 32.402344 L 45.566406 32.460938 Z M 45.269531 32.402344 C 45.6875 32.402344 46.023438 32.738281 46.023438 33.148438 C 46.023438 33.566406 45.6875 33.90625 45.269531 33.90625 Z M 50.933594 38.355469 L 49.59375 39.042969 L 49.445312 38.753906 L 49.289062 38.445312 L 49.203125 38.28125 L 49.113281 38.113281 L 49.027344 37.945312 L 48.933594 37.769531 L 48.832031 37.59375 L 48.722656 37.414062 L 48.613281 37.230469 L 48.507812 37.046875 L 48.386719 36.867188 L 48.265625 36.683594 L 48.136719 36.496094 L 48 36.3125 L 47.859375 36.132812 L 47.710938 35.949219 L 47.5625 35.773438 L 47.40625 35.597656 L 47.238281 35.421875 L 47.070312 35.253906 L 46.894531 35.085938 L 46.714844 34.921875 L 46.515625 34.769531 L 46.320312 34.621094 L 46.121094 34.472656 L 45.902344 34.335938 L 45.6875 34.203125 L 45.457031 34.074219 L 45.222656 33.953125 L 44.972656 33.84375 L 45.566406 32.460938 L 45.871094 32.597656 L 46.160156 32.746094 L 46.4375 32.898438 L 46.707031 33.0625 L 46.96875 33.230469 L 47.21875 33.40625 L 47.453125 33.589844 L 47.683594 33.777344 L 47.90625 33.972656 L 48.117188 34.175781 L 48.316406 34.371094 L 48.515625 34.578125 L 48.695312 34.78125 L 48.871094 34.992188 L 49.039062 35.199219 L 49.203125 35.410156 L 49.355469 35.617188 L 49.503906 35.828125 L 49.640625 36.035156 L 49.773438 36.246094 L 49.902344 36.449219 L 50.023438 36.648438 L 50.140625 36.847656 L 50.246094 37.035156 L 50.347656 37.222656 L 50.441406 37.40625 L 50.539062 37.585938 L 50.625 37.757812 L 50.785156 38.074219 Z M 50.933594 38.355469 C 51.125 38.726562 50.976562 39.179688 50.609375 39.367188 C 50.242188 39.558594 49.78125 39.414062 49.59375 39.042969 Z M 75.566406 55.285156 C 75.574219 55.703125 75.242188 56.046875 74.832031 56.054688 C 74.414062 56.0625 74.070312 55.738281 74.0625 55.320312 Z M 75.324219 43.617188 L 75.566406 55.285156 L 74.0625 55.320312 L 73.820312 43.652344 Z M 73.820312 43.652344 C 73.8125 43.234375 74.144531 42.890625 74.5625 42.882812 C 74.972656 42.875 75.316406 43.207031 75.324219 43.617188 Z M 67.109375 55.375 C 67.203125 55.777344 66.960938 56.183594 66.554688 56.285156 C 66.152344 56.378906 65.746094 56.128906 65.644531 55.730469 Z M 64.34375 44.035156 L 67.109375 55.375 L 65.644531 55.730469 L 62.878906 44.394531 Z M 62.878906 44.394531 C 62.777344 43.988281 63.027344 43.578125 63.433594 43.484375 C 63.835938 43.382812 64.242188 43.632812 64.34375 44.035156 Z M 83.742188 55.730469 C 83.640625 56.128906 83.234375 56.378906 82.832031 56.285156 C 82.425781 56.183594 82.183594 55.777344 82.277344 55.375 Z M 86.507812 44.394531 L 83.742188 55.730469 L 82.277344 55.375 L 85.042969 44.035156 Z M 85.042969 44.035156 C 85.144531 43.632812 85.546875 43.382812 85.953125 43.484375 C 86.359375 43.578125 86.609375 43.988281 86.507812 44.394531 Z M 88.382812 67.027344 C 88.792969 67.027344 89.128906 67.367188 89.128906 67.777344 C 89.128906 68.195312 88.792969 68.53125 88.382812 68.53125 Z M 65.589844 67.027344 L 88.382812 67.027344 L 88.382812 68.53125 L 65.589844 68.53125 Z M 65.589844 68.53125 C 65.171875 68.53125 64.84375 68.195312 64.84375 67.777344 C 64.84375 67.367188 65.171875 67.027344 65.589844 67.027344 Z M 62.386719 67.25 L 63.40625 66.136719 L 63.464844 66.191406 L 63.527344 66.246094 L 63.59375 66.300781 L 63.664062 66.347656 L 63.722656 66.402344 L 63.789062 66.441406 L 63.863281 66.488281 L 63.933594 66.527344 L 64 66.578125 L 64.074219 66.609375 L 64.140625 66.652344 L 64.214844 66.683594 L 64.289062 66.71875 L 64.355469 66.75 L 64.429688 66.785156 L 64.652344 66.867188 L 64.722656 66.886719 L 64.871094 66.925781 L 64.9375 66.949219 L 65.011719 66.960938 L 65.078125 66.972656 L 65.144531 66.988281 L 65.214844 67 L 65.347656 67.015625 L 65.410156 67.019531 L 65.46875 67.019531 L 65.53125 67.027344 L 65.589844 67.027344 L 65.589844 68.53125 L 65.496094 68.53125 L 65.394531 68.527344 L 65.292969 68.519531 L 65.199219 68.511719 L 65.097656 68.5 L 64.996094 68.484375 L 64.898438 68.472656 L 64.796875 68.453125 L 64.695312 68.429688 L 64.585938 68.410156 L 64.382812 68.355469 L 64.28125 68.324219 L 64.175781 68.289062 L 64.074219 68.253906 L 63.972656 68.214844 L 63.863281 68.175781 L 63.761719 68.132812 L 63.664062 68.085938 L 63.5625 68.039062 L 63.351562 67.933594 L 63.25 67.878906 L 63.148438 67.816406 L 63.054688 67.757812 L 62.953125 67.695312 L 62.859375 67.628906 L 62.757812 67.554688 L 62.664062 67.488281 L 62.570312 67.40625 L 62.480469 67.332031 Z M 62.386719 67.25 C 62.082031 66.96875 62.0625 66.488281 62.339844 66.183594 C 62.625 65.882812 63.101562 65.863281 63.40625 66.136719 Z M 60.902344 64.25 L 62.402344 64.09375 L 62.40625 64.183594 L 62.421875 64.261719 L 62.433594 64.34375 L 62.449219 64.425781 L 62.460938 64.503906 L 62.480469 64.578125 L 62.503906 64.660156 L 62.523438 64.734375 L 62.542969 64.800781 L 62.570312 64.875 L 62.597656 64.945312 L 62.625 65.019531 L 62.652344 65.085938 L 62.675781 65.144531 L 62.710938 65.214844 L 62.746094 65.273438 L 62.777344 65.34375 L 62.8125 65.402344 L 62.847656 65.464844 L 62.878906 65.515625 L 62.921875 65.578125 L 62.960938 65.632812 L 63 65.691406 L 63.042969 65.746094 L 63.082031 65.800781 L 63.128906 65.847656 L 63.167969 65.902344 L 63.21875 65.949219 L 63.265625 65.996094 L 63.3125 66.050781 L 63.359375 66.097656 L 63.40625 66.136719 L 62.386719 67.25 L 62.320312 67.183594 L 62.246094 67.117188 L 62.179688 67.042969 L 62.109375 66.972656 L 61.976562 66.824219 L 61.914062 66.746094 L 61.855469 66.664062 L 61.792969 66.582031 L 61.734375 66.503906 L 61.671875 66.421875 L 61.617188 66.332031 L 61.566406 66.246094 L 61.511719 66.152344 L 61.457031 66.0625 L 61.410156 65.96875 L 61.355469 65.875 L 61.316406 65.78125 L 61.269531 65.679688 L 61.226562 65.578125 L 61.1875 65.476562 L 61.144531 65.375 L 61.113281 65.269531 L 61.078125 65.160156 L 61.050781 65.050781 L 61.019531 64.945312 L 61 64.828125 L 60.972656 64.714844 L 60.949219 64.601562 L 60.929688 64.484375 L 60.917969 64.363281 Z M 60.902344 64.25 C 60.863281 63.832031 61.160156 63.46875 61.578125 63.425781 C 61.988281 63.378906 62.359375 63.683594 62.402344 64.09375 Z M 62.183594 61.949219 L 62.402344 64.09375 L 60.902344 64.25 L 60.6875 62.105469 Z M 60.6875 62.105469 C 60.640625 61.6875 60.945312 61.320312 61.355469 61.273438 C 61.773438 61.234375 62.136719 61.539062 62.183594 61.949219 Z M 97.269531 37.789062 L 51.347656 36.710938 L 51.378906 35.207031 L 97.304688 36.285156 L 97.371094 36.292969 Z M 97.304688 36.285156 C 97.722656 36.292969 98.046875 36.636719 98.039062 37.054688 C 98.027344 37.472656 97.683594 37.796875 97.269531 37.789062 Z M 99.253906 38.671875 L 97.761719 38.5 L 97.761719 38.363281 L 97.757812 38.335938 L 97.757812 38.304688 L 97.75 38.277344 L 97.742188 38.242188 L 97.730469 38.214844 L 97.722656 38.179688 L 97.710938 38.15625 L 97.695312 38.128906 L 97.683594 38.101562 L 97.660156 38.074219 L 97.648438 38.046875 L 97.628906 38.027344 L 97.609375 38 L 97.585938 37.980469 L 97.566406 37.957031 L 97.539062 37.933594 L 97.519531 37.910156 L 97.492188 37.898438 L 97.464844 37.878906 L 97.4375 37.863281 L 97.414062 37.851562 L 97.386719 37.835938 L 97.359375 37.824219 L 97.324219 37.808594 L 97.296875 37.804688 L 97.265625 37.796875 L 97.230469 37.789062 L 97.195312 37.785156 L 97.371094 36.292969 L 97.488281 36.304688 L 97.585938 36.328125 L 97.695312 36.355469 L 97.796875 36.378906 L 97.898438 36.421875 L 98 36.460938 L 98.09375 36.507812 L 98.179688 36.554688 L 98.277344 36.609375 L 98.363281 36.671875 L 98.445312 36.730469 L 98.523438 36.796875 L 98.597656 36.867188 L 98.671875 36.933594 L 98.742188 37.015625 L 98.808594 37.09375 L 98.871094 37.175781 L 98.929688 37.257812 L 98.984375 37.34375 L 99.03125 37.4375 L 99.078125 37.535156 L 99.117188 37.628906 L 99.152344 37.722656 L 99.1875 37.824219 L 99.214844 37.925781 L 99.234375 38.027344 L 99.253906 38.132812 L 99.261719 38.242188 L 99.265625 38.351562 L 99.265625 38.566406 Z M 99.253906 38.671875 C 99.207031 39.085938 98.828125 39.382812 98.417969 39.335938 C 98.007812 39.28125 97.710938 38.910156 97.761719 38.5 Z M 99.097656 39.226562 L 97.628906 38.902344 L 97.695312 38.714844 L 97.703125 38.699219 L 97.703125 38.695312 L 97.710938 38.695312 L 97.710938 38.679688 L 97.714844 38.671875 L 97.714844 38.667969 L 97.722656 38.660156 L 97.722656 38.648438 L 97.730469 38.640625 L 97.730469 38.625 L 97.734375 38.621094 L 97.734375 38.605469 L 97.742188 38.597656 L 97.742188 38.578125 L 97.75 38.574219 L 97.75 38.546875 L 97.757812 38.546875 L 97.757812 38.503906 L 97.761719 38.5 L 99.253906 38.671875 L 99.253906 38.695312 L 99.246094 38.722656 L 99.246094 38.746094 L 99.242188 38.773438 L 99.242188 38.796875 L 99.234375 38.816406 L 99.21875 38.871094 L 99.21875 38.890625 L 99.214844 38.917969 L 99.207031 38.9375 L 99.191406 38.992188 L 99.1875 39.011719 L 99.179688 39.03125 L 99.171875 39.058594 L 99.167969 39.078125 L 99.160156 39.105469 L 99.144531 39.144531 L 99.132812 39.171875 L 99.125 39.191406 L 99.117188 39.214844 L 99.105469 39.242188 L 99.097656 39.261719 L 99.09375 39.28125 L 99.078125 39.300781 L 99.070312 39.328125 L 99.058594 39.347656 L 99.050781 39.367188 L 99.039062 39.386719 L 99.03125 39.410156 Z M 99.03125 39.410156 C 98.835938 39.78125 98.382812 39.921875 98.011719 39.734375 C 97.648438 39.535156 97.5 39.085938 97.695312 38.714844 Z M 93.339844 58.507812 L 97.628906 38.902344 L 99.097656 39.226562 L 94.808594 58.832031 L 94.773438 58.953125 Z M 94.808594 58.832031 C 94.722656 59.238281 94.324219 59.496094 93.910156 59.40625 C 93.507812 59.320312 93.25 58.914062 93.339844 58.507812 Z M 91.808594 62.628906 L 90.972656 61.375 L 91.066406 61.308594 L 91.167969 61.242188 L 91.261719 61.175781 L 91.355469 61.101562 L 91.445312 61.027344 L 91.539062 60.953125 L 91.625 60.871094 L 91.714844 60.789062 L 91.800781 60.707031 L 91.886719 60.628906 L 92.058594 60.457031 L 92.136719 60.371094 L 92.21875 60.277344 L 92.292969 60.1875 L 92.375 60.09375 L 92.523438 59.90625 L 92.597656 59.804688 L 92.730469 59.601562 L 92.800781 59.5 L 92.867188 59.398438 L 92.933594 59.292969 L 92.996094 59.183594 L 93.054688 59.078125 L 93.117188 58.960938 L 93.171875 58.855469 L 93.222656 58.738281 L 93.277344 58.625 L 93.332031 58.503906 L 93.378906 58.386719 L 94.773438 58.953125 L 94.714844 59.097656 L 94.648438 59.238281 L 94.585938 59.378906 L 94.519531 59.519531 L 94.453125 59.65625 L 94.378906 59.792969 L 94.304688 59.925781 L 94.230469 60.054688 L 94.066406 60.3125 L 93.984375 60.4375 L 93.898438 60.566406 L 93.816406 60.6875 L 93.722656 60.808594 L 93.636719 60.925781 L 93.539062 61.039062 L 93.445312 61.152344 L 93.351562 61.269531 L 93.25 61.382812 L 93.148438 61.492188 L 93.046875 61.59375 L 92.949219 61.699219 L 92.730469 61.902344 L 92.625 62.003906 L 92.507812 62.097656 L 92.394531 62.191406 L 92.285156 62.28125 L 92.164062 62.375 L 92.050781 62.460938 L 91.929688 62.542969 Z M 91.808594 62.628906 C 91.464844 62.859375 91 62.765625 90.761719 62.421875 C 90.53125 62.078125 90.628906 61.613281 90.972656 61.375 Z M 87.296875 63.988281 L 87.296875 62.480469 L 87.421875 62.480469 L 87.546875 62.476562 L 87.671875 62.46875 L 87.800781 62.460938 L 87.921875 62.457031 L 88.050781 62.441406 L 88.171875 62.429688 L 88.292969 62.40625 L 88.65625 62.347656 L 88.777344 62.320312 L 88.894531 62.292969 L 89.015625 62.261719 L 89.128906 62.226562 L 89.246094 62.191406 L 89.359375 62.160156 L 89.472656 62.117188 L 89.589844 62.078125 L 89.703125 62.039062 L 89.8125 61.996094 L 89.925781 61.949219 L 90.035156 61.902344 L 90.140625 61.847656 L 90.25 61.792969 L 90.359375 61.742188 L 90.457031 61.6875 L 90.566406 61.632812 L 90.667969 61.570312 L 90.769531 61.503906 L 90.871094 61.445312 L 90.972656 61.375 L 91.808594 62.628906 L 91.6875 62.710938 L 91.558594 62.785156 L 91.4375 62.859375 L 91.179688 63.007812 L 91.050781 63.074219 L 90.917969 63.144531 L 90.789062 63.210938 L 90.65625 63.269531 L 90.519531 63.332031 L 90.382812 63.386719 L 90.242188 63.441406 L 90.109375 63.492188 L 89.964844 63.542969 L 89.683594 63.636719 L 89.542969 63.675781 L 89.398438 63.714844 L 89.101562 63.785156 L 88.960938 63.816406 L 88.515625 63.898438 L 88.359375 63.917969 L 88.210938 63.933594 L 88.0625 63.953125 L 87.910156 63.964844 L 87.753906 63.972656 L 87.605469 63.980469 L 87.449219 63.988281 Z M 87.296875 63.988281 C 86.878906 63.988281 86.539062 63.648438 86.539062 63.230469 C 86.539062 62.820312 86.878906 62.480469 87.296875 62.480469 Z M 65.523438 62.480469 L 87.296875 62.480469 L 87.296875 63.988281 L 65.523438 63.988281 Z M 65.523438 63.988281 C 65.105469 63.988281 64.769531 63.648438 64.769531 63.230469 C 64.769531 62.820312 65.105469 62.480469 65.523438 62.480469 Z M 61.046875 62.65625 L 61.875 61.402344 L 61.976562 61.464844 L 62.078125 61.53125 L 62.179688 61.59375 L 62.28125 61.644531 L 62.378906 61.707031 L 62.597656 61.816406 L 62.699219 61.863281 L 62.804688 61.914062 L 62.914062 61.964844 L 63.027344 62.003906 L 63.136719 62.050781 L 63.242188 62.089844 L 63.359375 62.132812 L 63.472656 62.164062 L 63.589844 62.199219 L 63.703125 62.234375 L 63.816406 62.265625 L 63.933594 62.292969 L 64.054688 62.320312 L 64.167969 62.347656 L 64.53125 62.40625 L 64.652344 62.429688 L 64.773438 62.441406 L 64.894531 62.457031 L 65.019531 62.460938 L 65.144531 62.46875 L 65.265625 62.476562 L 65.394531 62.480469 L 65.523438 62.480469 L 65.523438 63.988281 L 65.367188 63.988281 L 65.214844 63.980469 L 65.066406 63.972656 L 64.910156 63.964844 L 64.761719 63.953125 L 64.613281 63.9375 L 64.167969 63.878906 L 63.871094 63.824219 L 63.730469 63.789062 L 63.582031 63.757812 L 63.441406 63.722656 L 63.296875 63.683594 L 63.15625 63.640625 L 63.015625 63.601562 L 62.875 63.554688 L 62.738281 63.507812 L 62.601562 63.453125 L 62.460938 63.398438 L 62.328125 63.34375 L 62.191406 63.285156 L 62.0625 63.222656 L 61.929688 63.164062 L 61.800781 63.097656 L 61.671875 63.027344 L 61.542969 62.960938 L 61.167969 62.738281 Z M 61.046875 62.65625 C 60.703125 62.429688 60.605469 61.964844 60.835938 61.613281 C 61.066406 61.269531 61.53125 61.175781 61.875 61.402344 Z M 58.085938 59.050781 L 59.46875 58.460938 L 59.515625 58.582031 L 59.566406 58.699219 L 59.621094 58.804688 L 59.683594 58.921875 L 59.738281 59.027344 L 59.796875 59.144531 L 59.859375 59.25 L 59.917969 59.351562 L 59.988281 59.460938 L 60.1875 59.765625 L 60.257812 59.859375 L 60.480469 60.140625 L 60.558594 60.238281 L 60.632812 60.324219 L 60.714844 60.410156 L 60.796875 60.5 L 60.964844 60.667969 L 61.050781 60.75 L 61.140625 60.828125 L 61.226562 60.902344 L 61.316406 60.984375 L 61.402344 61.058594 L 61.496094 61.125 L 61.589844 61.199219 L 61.6875 61.269531 L 61.875 61.402344 L 61.046875 62.65625 L 60.929688 62.578125 L 60.808594 62.496094 L 60.695312 62.40625 L 60.574219 62.320312 L 60.464844 62.226562 L 60.351562 62.136719 L 60.234375 62.042969 L 60.128906 61.949219 L 60.019531 61.847656 L 59.917969 61.746094 L 59.8125 61.644531 L 59.710938 61.539062 L 59.609375 61.4375 L 59.515625 61.324219 L 59.414062 61.214844 L 59.320312 61.101562 L 59.230469 60.984375 L 59.136719 60.871094 L 59.050781 60.753906 L 58.960938 60.632812 L 58.875 60.511719 L 58.792969 60.382812 L 58.710938 60.261719 L 58.628906 60.136719 L 58.554688 60.007812 L 58.480469 59.871094 L 58.40625 59.742188 L 58.339844 59.609375 L 58.273438 59.46875 L 58.207031 59.332031 L 58.144531 59.191406 Z M 58.085938 59.050781 C 57.914062 58.671875 58.097656 58.226562 58.480469 58.066406 C 58.859375 57.902344 59.304688 58.085938 59.46875 58.460938 Z M 50.609375 37.585938 L 59.46875 58.460938 L 58.085938 59.050781 L 49.222656 38.175781 Z M 49.222656 38.175781 C 49.058594 37.796875 49.242188 37.351562 49.625 37.191406 C 50.003906 37.027344 50.449219 37.203125 50.609375 37.585938 Z M 50.367188 35.367188 L 50.949219 36.757812 L 50.921875 36.773438 L 50.886719 36.785156 L 50.859375 36.796875 L 50.832031 36.820312 L 50.8125 36.839844 L 50.785156 36.851562 L 50.738281 36.898438 L 50.71875 36.921875 L 50.699219 36.941406 L 50.683594 36.96875 L 50.664062 36.996094 L 50.652344 37.019531 L 50.632812 37.046875 L 50.617188 37.074219 L 50.609375 37.101562 L 50.597656 37.128906 L 50.585938 37.164062 L 50.578125 37.191406 L 50.570312 37.222656 L 50.5625 37.25 L 50.5625 37.3125 L 50.558594 37.34375 L 50.5625 37.371094 L 50.5625 37.433594 L 50.570312 37.464844 L 50.578125 37.5 L 50.589844 37.527344 L 50.597656 37.5625 L 50.609375 37.585938 L 49.222656 38.175781 L 49.179688 38.074219 L 49.148438 37.972656 L 49.121094 37.863281 L 49.09375 37.761719 L 49.082031 37.65625 L 49.066406 37.554688 L 49.058594 37.445312 L 49.054688 37.339844 L 49.058594 37.238281 L 49.066406 37.136719 L 49.082031 37.027344 L 49.09375 36.925781 L 49.121094 36.824219 L 49.148438 36.730469 L 49.179688 36.628906 L 49.214844 36.535156 L 49.253906 36.441406 L 49.304688 36.347656 L 49.351562 36.257812 L 49.402344 36.171875 L 49.464844 36.082031 L 49.527344 36.003906 L 49.59375 35.921875 L 49.742188 35.773438 L 49.816406 35.707031 L 49.902344 35.636719 L 49.984375 35.578125 L 50.078125 35.515625 L 50.171875 35.464844 Z M 50.367188 35.367188 C 50.753906 35.207031 51.191406 35.390625 51.351562 35.773438 C 51.515625 36.152344 51.332031 36.597656 50.949219 36.757812 Z M 50.609375 35.910156 L 52.117188 36.015625 L 51.273438 36.710938 L 51.265625 36.710938 L 51.253906 36.703125 L 51.144531 36.703125 L 51.128906 36.710938 L 51.089844 36.710938 L 51.082031 36.71875 L 51.0625 36.71875 L 51.050781 36.722656 L 51.035156 36.722656 L 51.023438 36.730469 L 51.007812 36.730469 L 51.003906 36.738281 L 50.988281 36.738281 L 50.980469 36.746094 L 50.96875 36.746094 L 50.960938 36.75 L 50.949219 36.757812 L 50.367188 35.367188 L 50.394531 35.355469 L 50.4375 35.34375 L 50.46875 35.328125 L 50.503906 35.316406 L 50.53125 35.308594 L 50.570312 35.292969 L 50.597656 35.289062 L 50.632812 35.273438 L 50.671875 35.269531 L 50.707031 35.261719 L 50.738281 35.253906 L 50.773438 35.242188 L 50.808594 35.234375 L 50.839844 35.234375 L 50.875 35.226562 L 50.90625 35.21875 L 50.941406 35.214844 L 50.976562 35.214844 L 51.007812 35.207031 L 51.078125 35.207031 L 51.117188 35.199219 L 51.285156 35.199219 L 51.320312 35.207031 L 51.386719 35.207031 L 51.414062 35.214844 L 51.449219 35.214844 Z M 51.449219 35.214844 C 51.867188 35.269531 52.15625 35.636719 52.109375 36.050781 C 52.0625 36.460938 51.683594 36.757812 51.273438 36.710938 Z M 52.117188 36.007812 L 52.117188 36.015625 L 50.609375 35.910156 L 50.609375 35.902344 L 51.378906 35.207031 Z M 50.609375 35.902344 C 50.636719 35.492188 51.003906 35.179688 51.414062 35.207031 C 51.832031 35.242188 52.140625 35.597656 52.117188 36.007812 Z M 50.609375 35.902344 " fill-opacity="1" fill-rule="nonzero"/><g clip-path="url(#08cc1653c0)"><path fill="#009444" d="M 67.808594 69.613281 C 68.855469 69.613281 69.800781 70.035156 70.496094 70.722656 L 70.5 70.730469 C 71.183594 71.417969 71.605469 72.371094 71.605469 73.410156 C 71.605469 74.453125 71.183594 75.40625 70.496094 76.09375 C 69.804688 76.78125 68.855469 77.207031 67.808594 77.207031 C 66.765625 77.207031 65.820312 76.78125 65.132812 76.09375 L 65.125 76.09375 C 64.4375 75.40625 64.011719 74.453125 64.011719 73.410156 C 64.011719 72.363281 64.4375 71.417969 65.125 70.730469 L 65.132812 70.722656 C 65.820312 70.035156 66.765625 69.613281 67.808594 69.613281 Z M 73.449219 28.050781 C 72.867188 26.507812 72.207031 25.0625 71.507812 23.742188 C 70.953125 24.011719 70.367188 24.226562 69.765625 24.382812 C 68.175781 24.792969 66.46875 24.78125 64.828125 24.300781 C 64.390625 24.164062 64.132812 23.707031 64.269531 23.261719 C 64.398438 22.824219 64.863281 22.574219 65.300781 22.703125 C 66.644531 23.101562 68.039062 23.105469 69.347656 22.769531 C 69.804688 22.648438 70.257812 22.488281 70.691406 22.285156 C 67.90625 17.644531 64.605469 14.9375 62.246094 15.800781 C 58.953125 16.996094 58.71875 24.636719 61.714844 32.859375 C 61.875 33.3125 62.050781 33.761719 62.226562 34.203125 L 75.269531 34.503906 C 74.988281 32.953125 74.566406 31.316406 74.015625 29.644531 C 73.367188 29.988281 72.679688 30.257812 71.972656 30.4375 C 70.378906 30.851562 68.671875 30.835938 67.035156 30.359375 C 66.597656 30.222656 66.347656 29.765625 66.476562 29.320312 C 66.601562 28.878906 67.066406 28.632812 67.507812 28.757812 C 68.847656 29.15625 70.25 29.164062 71.554688 28.828125 C 72.214844 28.65625 72.855469 28.394531 73.449219 28.050781 Z M 81.523438 34.652344 L 79.269531 30.742188 L 82.398438 29.703125 C 82.75 29.589844 82.945312 29.203125 82.832031 28.851562 C 82.714844 28.503906 82.332031 28.308594 81.980469 28.421875 L 78.722656 29.507812 C 78.675781 29.519531 78.636719 29.535156 78.59375 29.5625 L 78.339844 29.117188 C 77.683594 27.976562 77.597656 26.722656 78.082031 25.5 C 78.566406 24.28125 79.5 23.429688 80.761719 23.058594 L 82.324219 22.59375 C 83.585938 22.214844 84.828125 22.417969 85.90625 23.175781 C 86.976562 23.9375 87.59375 25.035156 87.667969 26.34375 L 88.058594 33.460938 C 88.003906 33.460938 87.949219 33.472656 87.890625 33.492188 L 84.632812 34.574219 C 84.53125 34.601562 84.449219 34.652344 84.375 34.722656 Z M 79.949219 22.289062 C 79.007812 21.226562 77.8125 20.523438 76.382812 20.1875 C 76.269531 20.160156 76.179688 20.097656 76.125 19.996094 C 76.074219 19.898438 76.058594 19.789062 76.09375 19.679688 C 76.246094 19.175781 76.515625 18.703125 76.867188 18.304688 C 76.96875 18.195312 77.109375 18.148438 77.257812 18.183594 C 78.464844 18.472656 79.328125 19.039062 79.863281 19.882812 C 78.835938 18.433594 78.332031 17.246094 78.34375 16.316406 C 78.34375 16.152344 78.445312 16.011719 78.601562 15.949219 C 79.113281 15.753906 79.675781 15.703125 80.21875 15.796875 C 80.394531 15.828125 80.523438 15.964844 80.542969 16.148438 C 80.617188 16.855469 80.765625 17.726562 81.003906 18.757812 C 81.03125 17.570312 81.582031 16.46875 82.507812 15.742188 C 82.609375 15.660156 82.730469 15.632812 82.859375 15.667969 C 83.296875 15.78125 83.714844 15.976562 84.085938 16.242188 C 84.261719 16.363281 84.308594 16.605469 84.1875 16.789062 C 83.179688 18.292969 82.710938 19.847656 82.769531 21.476562 C 82.527344 21.507812 82.285156 21.5625 82.042969 21.636719 L 80.476562 22.101562 C 80.292969 22.15625 80.121094 22.214844 79.949219 22.289062 Z M 85.292969 69.613281 C 86.332031 69.613281 87.28125 70.035156 87.96875 70.722656 L 87.976562 70.730469 C 88.664062 71.425781 89.089844 72.371094 89.089844 73.410156 C 89.089844 74.453125 88.664062 75.40625 87.976562 76.09375 L 87.96875 76.09375 C 87.28125 76.78125 86.335938 77.207031 85.292969 77.207031 C 84.246094 77.207031 83.296875 76.78125 82.609375 76.09375 C 81.921875 75.40625 81.496094 74.453125 81.496094 73.410156 C 81.496094 72.363281 81.921875 71.417969 82.609375 70.730469 L 82.609375 70.722656 C 83.296875 70.035156 84.246094 69.613281 85.292969 69.613281 Z M 85.292969 69.613281 " fill-opacity="1" fill-rule="evenodd"/></g><g fill="#009444" fill-opacity="1"><g transform="translate(33.73771, 108.091455)"><g><path d="M 1.328125 -15.265625 L 8.265625 -9.734375 L 1.328125 -4.15625 L 1.328125 -6.953125 L 5.484375 -9.734375 L 1.328125 -12.484375 Z M 1.328125 -15.265625 "/></g></g></g><g fill="#009444" fill-opacity="1"><g transform="translate(42.40429, 108.091455)"><g/></g></g><g fill="#009444" fill-opacity="1"><g transform="translate(50.355284, 108.091455)"><g><path d="M 13.125 -11.796875 C 13.632812 -11.515625 14.09375 -11.144531 14.5 -10.6875 C 14.851562 -10.300781 15.179688 -9.796875 15.484375 -9.171875 C 15.765625 -8.554688 15.90625 -7.816406 15.90625 -6.953125 C 15.90625 -5.898438 15.738281 -4.953125 15.40625 -4.109375 C 15.050781 -3.265625 14.554688 -2.539062 13.921875 -1.9375 C 13.265625 -1.3125 12.46875 -0.832031 11.53125 -0.5 C 10.582031 -0.164062 9.492188 0 8.265625 0 L 1.328125 0 L 1.328125 -19.4375 L 8.265625 -19.4375 C 9.492188 -19.4375 10.503906 -19.285156 11.296875 -18.984375 C 12.085938 -18.671875 12.722656 -18.273438 13.203125 -17.796875 C 13.679688 -17.316406 14.019531 -16.796875 14.21875 -16.234375 C 14.40625 -15.648438 14.5 -15.097656 14.5 -14.578125 C 14.5 -14.085938 14.429688 -13.664062 14.296875 -13.3125 C 14.128906 -12.957031 13.957031 -12.675781 13.78125 -12.46875 C 13.601562 -12.238281 13.445312 -12.066406 13.3125 -11.953125 C 13.164062 -11.847656 13.101562 -11.796875 13.125 -11.796875 Z M 9.65625 -14.578125 C 9.65625 -15.273438 9.457031 -15.796875 9.0625 -16.140625 C 8.65625 -16.484375 7.925781 -16.65625 6.875 -16.65625 L 6.875 -12.484375 C 7.925781 -12.484375 8.65625 -12.660156 9.0625 -13.015625 C 9.457031 -13.347656 9.65625 -13.867188 9.65625 -14.578125 Z M 6.875 -2.78125 C 7.5625 -2.78125 8.132812 -2.894531 8.59375 -3.125 C 9.03125 -3.351562 9.382812 -3.644531 9.65625 -4 C 9.914062 -4.332031 10.097656 -4.707031 10.203125 -5.125 C 10.296875 -5.53125 10.34375 -5.90625 10.34375 -6.25 C 10.34375 -6.59375 10.296875 -6.96875 10.203125 -7.375 C 10.097656 -7.78125 9.914062 -8.160156 9.65625 -8.515625 C 9.382812 -8.847656 9.03125 -9.128906 8.59375 -9.359375 C 8.132812 -9.585938 7.5625 -9.703125 6.875 -9.703125 Z M 6.875 -2.78125 "/></g></g></g><g fill="#009444" fill-opacity="1"><g transform="translate(67.052368, 108.091455)"><g><path d="M 10.046875 -5.546875 L 6.28125 -5.546875 L 4.6875 0 L 0.53125 0 L 6.078125 -19.4375 L 11.640625 -19.4375 L 17.1875 0 L 11.640625 0 Z M 9.25 -8.328125 L 8.171875 -12.140625 L 7.078125 -8.328125 Z M 9.25 -8.328125 "/></g></g></g><g fill="#009444" fill-opacity="1"><g transform="translate(84.756572, 108.091455)"><g><path d="M 1.328125 -4.140625 L 1.59375 -4.609375 C 1.75 -4.929688 1.96875 -5.347656 2.25 -5.859375 C 2.519531 -6.367188 2.832031 -6.960938 3.1875 -7.640625 C 3.539062 -8.296875 3.898438 -8.96875 4.265625 -9.65625 C 4.640625 -10.34375 5.007812 -11.019531 5.375 -11.6875 C 5.726562 -12.34375 6.050781 -12.9375 6.34375 -13.46875 C 6.625 -14 6.851562 -14.429688 7.03125 -14.765625 C 7.1875 -15.085938 7.273438 -15.253906 7.296875 -15.265625 L 1.328125 -15.265625 L 1.328125 -19.4375 L 13.546875 -19.4375 L 13.546875 -15.296875 C 13.492188 -15.210938 13.316406 -14.878906 13.015625 -14.296875 C 12.703125 -13.710938 12.320312 -13.015625 11.875 -12.203125 C 11.4375 -11.367188 10.96875 -10.492188 10.46875 -9.578125 L 9.09375 -6.96875 C 8.664062 -6.175781 8.3125 -5.515625 8.03125 -4.984375 C 7.726562 -4.453125 7.578125 -4.175781 7.578125 -4.15625 L 13.546875 -4.15625 L 13.546875 0 L 1.328125 0 Z M 1.328125 -4.140625 "/></g></g></g><g fill="#009444" fill-opacity="1"><g transform="translate(99.624928, 108.091455)"><g/></g></g><g fill="#009444" fill-opacity="1"><g transform="translate(107.575923, 108.091455)"><g><path d="M 7.34375 -12.484375 L 3.1875 -9.734375 L 7.34375 -6.953125 L 7.34375 -4.15625 L 0.390625 -9.734375 L 7.34375 -15.265625 Z M 7.34375 -12.484375 "/></g></g></g></svg>