<svg xmlns="http://www.w3.org/2000/svg" xmlns:xlink="http://www.w3.org/1999/xlink" width="500" zoomAndPan="magnify" viewBox="0 0 375 374.999991" height="500" preserveAspectRatio="xMidYMid meet" version="1.0"><defs><g/><clipPath id="d872ec51a3"><path d="M 166 113.042969 L 207 113.042969 L 207 196.292969 L 166 196.292969 Z M 166 113.042969 " clip-rule="nonzero"/></clipPath></defs><g fill="#000000" fill-opacity="1"><g transform="translate(157.766982, 256.627627)"><g><path d="M 11.765625 0 L 11.765625 -9.953125 L 8.78125 -9.953125 L 6.375 -3.75 L 3.953125 -9.953125 L 0.984375 -9.953125 L 0.984375 0 L 3.109375 0 L 3.109375 -7.15625 L 5.90625 0 L 6.828125 0 L 9.640625 -7.15625 L 9.640625 0 Z M 11.765625 0 "/></g></g></g><g fill="#000000" fill-opacity="1"><g transform="translate(170.529777, 256.627627)"><g><path d="M 10.265625 0 L 6.4375 -9.953125 L 3.78125 -9.953125 L -0.078125 0 L 2.25 0 L 2.875 -1.71875 L 7.328125 -1.71875 L 7.953125 0 Z M 6.75 -3.546875 L 3.453125 -3.546875 L 5.109375 -8.125 Z M 6.75 -3.546875 "/></g></g></g><g fill="#000000" fill-opacity="1"><g transform="translate(180.740022, 256.627627)"><g><path d="M 9.046875 0 L 6.796875 -3.796875 C 7.875 -4.046875 8.984375 -4.984375 8.984375 -6.75 C 8.984375 -8.59375 7.71875 -9.953125 5.640625 -9.953125 L 0.984375 -9.953125 L 0.984375 0 L 3.109375 0 L 3.109375 -3.5625 L 4.65625 -3.5625 L 6.609375 0 Z M 6.8125 -6.765625 C 6.8125 -5.921875 6.171875 -5.390625 5.328125 -5.390625 L 3.109375 -5.390625 L 3.109375 -8.125 L 5.328125 -8.125 C 6.171875 -8.125 6.8125 -7.59375 6.8125 -6.765625 Z M 6.8125 -6.765625 "/></g></g></g><g fill="#000000" fill-opacity="1"><g transform="translate(190.338247, 256.627627)"><g><path d="M 9.5 0 L 5.28125 -5.28125 L 9.234375 -9.953125 L 6.625 -9.953125 L 3.109375 -5.5 L 3.109375 -9.953125 L 0.984375 -9.953125 L 0.984375 0 L 3.109375 0 L 3.109375 -3.0625 L 3.875 -3.984375 L 6.890625 0 Z M 9.5 0 "/></g></g></g><g fill="#000000" fill-opacity="1"><g transform="translate(199.831983, 256.627627)"><g><path d="M 8.03125 0 L 8.03125 -1.828125 L 3.109375 -1.828125 L 3.109375 -4.140625 L 7.921875 -4.140625 L 7.921875 -5.96875 L 3.109375 -5.96875 L 3.109375 -8.125 L 8.03125 -8.125 L 8.03125 -9.953125 L 0.984375 -9.953125 L 0.984375 0 Z M 8.03125 0 "/></g></g></g><g fill="#000000" fill-opacity="1"><g transform="translate(208.534567, 256.627627)"><g><path d="M 5.421875 0 L 5.421875 -8.09375 L 8.3125 -8.09375 L 8.3125 -9.953125 L 0.375 -9.953125 L 0.375 -8.09375 L 3.28125 -8.09375 L 3.28125 0 Z M 5.421875 0 "/></g></g></g><path fill="#000000" d="M 134.96875 137.535156 C 134.410156 137.535156 133.957031 137.082031 133.957031 136.523438 C 133.957031 135.96875 134.410156 135.519531 134.96875 135.519531 Z M 142.605469 137.527344 L 134.96875 137.535156 L 134.96875 135.519531 L 142.605469 135.507812 L 142.660156 137.527344 Z M 142.605469 135.507812 C 143.164062 135.507812 143.617188 135.960938 143.617188 136.523438 C 143.617188 137.082031 143.164062 137.527344 142.605469 137.527344 Z M 145.472656 135.699219 L 145.117188 137.679688 L 145.046875 137.671875 L 144.972656 137.664062 L 144.902344 137.644531 L 144.828125 137.636719 L 144.757812 137.625 L 144.683594 137.617188 L 144.601562 137.609375 L 144.53125 137.597656 L 144.457031 137.589844 L 144.386719 137.582031 L 144.3125 137.570312 L 144.230469 137.5625 L 144.160156 137.554688 L 144.078125 137.554688 L 144.007812 137.542969 L 143.933594 137.542969 L 143.851562 137.535156 L 143.769531 137.535156 L 143.699219 137.527344 L 143.542969 137.527344 L 143.464844 137.515625 L 142.902344 137.515625 L 142.820312 137.527344 L 142.660156 137.527344 L 142.558594 135.519531 L 142.660156 135.507812 L 142.757812 135.507812 L 142.847656 135.5 L 143.507812 135.5 L 143.597656 135.507812 L 143.789062 135.507812 L 143.878906 135.519531 L 143.96875 135.519531 L 144.058594 135.527344 L 144.152344 135.535156 L 144.242188 135.535156 L 144.332031 135.546875 L 144.511719 135.5625 L 144.601562 135.574219 L 144.683594 135.582031 L 144.773438 135.589844 L 144.867188 135.609375 L 144.957031 135.617188 L 145.039062 135.628906 L 145.128906 135.644531 L 145.210938 135.652344 L 145.300781 135.671875 L 145.390625 135.679688 Z M 145.472656 135.699219 C 146.023438 135.800781 146.386719 136.324219 146.285156 136.867188 C 146.1875 137.417969 145.660156 137.78125 145.117188 137.679688 Z M 147.632812 136.378906 L 147.632812 138.394531 L 147.234375 138.3125 L 147.109375 138.257812 L 147.054688 138.242188 L 146.992188 138.214844 L 146.925781 138.1875 L 146.863281 138.167969 L 146.800781 138.140625 L 146.738281 138.125 L 146.675781 138.097656 L 146.621094 138.078125 L 146.558594 138.050781 L 146.484375 138.03125 L 146.421875 138.003906 L 146.359375 137.988281 L 146.292969 137.96875 L 146.230469 137.953125 L 146.160156 137.933594 L 146.09375 137.90625 L 146.023438 137.886719 L 145.960938 137.871094 L 145.898438 137.851562 L 145.824219 137.832031 L 145.75 137.816406 L 145.6875 137.808594 L 145.617188 137.789062 L 145.542969 137.769531 L 145.472656 137.753906 L 145.40625 137.742188 L 145.335938 137.726562 L 145.261719 137.707031 L 145.191406 137.699219 L 145.117188 137.679688 L 145.472656 135.699219 L 145.5625 135.71875 L 145.644531 135.726562 L 145.734375 135.746094 L 145.816406 135.761719 L 145.898438 135.78125 L 145.988281 135.800781 L 146.070312 135.816406 L 146.160156 135.84375 L 146.238281 135.863281 L 146.320312 135.878906 L 146.402344 135.898438 L 146.484375 135.925781 L 146.566406 135.945312 L 146.648438 135.96875 L 146.730469 135.988281 L 146.808594 136.015625 L 146.882812 136.042969 L 146.964844 136.0625 L 147.046875 136.089844 L 147.117188 136.117188 L 147.199219 136.140625 L 147.28125 136.167969 L 147.351562 136.195312 L 147.433594 136.222656 L 147.507812 136.25 L 147.589844 136.277344 L 147.660156 136.304688 L 147.734375 136.339844 L 147.804688 136.367188 L 147.878906 136.394531 L 147.957031 136.433594 L 148.03125 136.460938 Z M 148.03125 136.460938 C 148.539062 136.675781 148.773438 137.273438 148.554688 137.78125 C 148.339844 138.296875 147.742188 138.53125 147.234375 138.3125 Z M 147.632812 138.394531 L 147.632812 136.378906 L 148.03125 136.460938 Z M 147.632812 136.378906 C 148.195312 136.378906 148.644531 136.828125 148.644531 137.382812 C 148.644531 137.941406 148.195312 138.394531 147.632812 138.394531 Z M 155.230469 144.363281 L 153.429688 145.289062 L 153.230469 144.898438 L 153.023438 144.480469 L 152.90625 144.265625 L 152.671875 143.8125 L 152.542969 143.578125 L 152.410156 143.34375 L 152.265625 143.097656 L 152.121094 142.855469 L 151.976562 142.609375 L 151.8125 142.367188 L 151.648438 142.121094 L 151.476562 141.867188 L 151.296875 141.625 L 151.105469 141.378906 L 150.90625 141.136719 L 150.707031 140.898438 L 150.5 140.664062 L 150.273438 140.429688 L 150.046875 140.203125 L 149.8125 139.976562 L 149.570312 139.761719 L 149.304688 139.550781 L 149.042969 139.355469 L 148.773438 139.15625 L 148.484375 138.972656 L 148.195312 138.792969 L 147.886719 138.621094 L 147.570312 138.457031 L 147.234375 138.3125 L 148.03125 136.460938 L 148.4375 136.640625 L 148.828125 136.839844 L 149.199219 137.046875 L 149.558594 137.265625 L 149.914062 137.492188 L 150.246094 137.726562 L 150.5625 137.96875 L 150.871094 138.222656 L 151.167969 138.484375 L 151.449219 138.757812 L 151.722656 139.019531 L 151.984375 139.300781 L 152.226562 139.570312 L 152.464844 139.851562 L 152.6875 140.132812 L 152.90625 140.410156 L 153.113281 140.691406 L 153.3125 140.972656 L 153.496094 141.253906 L 153.675781 141.535156 L 153.847656 141.804688 L 154.011719 142.074219 L 154.164062 142.339844 L 154.308594 142.589844 L 154.445312 142.84375 L 154.570312 143.089844 L 154.699219 143.332031 L 154.816406 143.558594 L 155.03125 143.984375 Z M 155.230469 144.363281 C 155.484375 144.863281 155.285156 145.46875 154.796875 145.722656 C 154.300781 145.972656 153.683594 145.785156 153.429688 145.289062 Z M 188.265625 167.066406 C 188.273438 167.628906 187.828125 168.089844 187.277344 168.097656 C 186.71875 168.109375 186.253906 167.671875 186.246094 167.113281 Z M 187.9375 151.417969 L 188.265625 167.066406 L 186.246094 167.113281 L 185.921875 151.464844 Z M 185.921875 151.464844 C 185.910156 150.902344 186.355469 150.441406 186.914062 150.433594 C 187.46875 150.425781 187.929688 150.867188 187.9375 151.417969 Z M 176.921875 167.183594 C 177.046875 167.726562 176.722656 168.269531 176.179688 168.40625 C 175.636719 168.53125 175.09375 168.199219 174.957031 167.664062 Z M 173.210938 151.980469 L 176.921875 167.183594 L 174.957031 167.664062 L 171.25 152.460938 Z M 171.25 152.460938 C 171.113281 151.917969 171.449219 151.367188 171.992188 151.238281 C 172.535156 151.101562 173.078125 151.4375 173.210938 151.980469 Z M 199.226562 167.664062 C 199.089844 168.199219 198.546875 168.53125 198.003906 168.40625 C 197.460938 168.269531 197.136719 167.726562 197.261719 167.183594 Z M 202.933594 152.460938 L 199.226562 167.664062 L 197.261719 167.183594 L 200.972656 151.980469 Z M 200.972656 151.980469 C 201.109375 151.4375 201.652344 151.101562 202.191406 151.238281 C 202.734375 151.367188 203.070312 151.917969 202.933594 152.460938 Z M 205.449219 182.816406 C 206 182.816406 206.453125 183.265625 206.453125 183.820312 C 206.453125 184.378906 206 184.832031 205.449219 184.832031 Z M 174.886719 182.816406 L 205.449219 182.816406 L 205.449219 184.832031 L 174.886719 184.832031 Z M 174.886719 184.832031 C 174.324219 184.832031 173.882812 184.378906 173.882812 183.820312 C 173.882812 183.265625 174.324219 182.816406 174.886719 182.816406 Z M 170.589844 183.113281 L 171.957031 181.621094 L 172.035156 181.695312 L 172.117188 181.765625 L 172.207031 181.839844 L 172.300781 181.902344 L 172.378906 181.972656 L 172.472656 182.027344 L 172.570312 182.089844 L 172.660156 182.144531 L 172.75 182.210938 L 172.851562 182.253906 L 172.941406 182.308594 L 173.039062 182.355469 L 173.140625 182.398438 L 173.230469 182.445312 L 173.332031 182.488281 L 173.429688 182.527344 L 173.527344 182.5625 L 173.628906 182.597656 L 173.71875 182.625 L 173.820312 182.652344 L 173.917969 182.679688 L 174.007812 182.707031 L 174.109375 182.726562 L 174.199219 182.742188 L 174.289062 182.761719 L 174.378906 182.777344 L 174.46875 182.789062 L 174.558594 182.796875 L 174.640625 182.804688 L 174.722656 182.804688 L 174.804688 182.816406 L 174.886719 182.816406 L 174.886719 184.832031 L 174.757812 184.832031 L 174.625 184.824219 L 174.488281 184.8125 L 174.363281 184.804688 L 174.226562 184.785156 L 174.089844 184.769531 L 173.953125 184.75 L 173.820312 184.722656 L 173.683594 184.695312 L 173.539062 184.667969 L 173.265625 184.597656 L 173.132812 184.550781 L 172.988281 184.507812 L 172.851562 184.460938 L 172.714844 184.40625 L 172.570312 184.351562 L 172.433594 184.296875 L 172.300781 184.234375 L 172.164062 184.171875 L 172.019531 184.097656 L 171.882812 184.027344 L 171.746094 183.953125 L 171.613281 183.875 L 171.484375 183.792969 L 171.347656 183.710938 L 171.222656 183.621094 L 171.085938 183.519531 L 170.960938 183.429688 L 170.832031 183.320312 L 170.714844 183.222656 Z M 170.589844 183.113281 C 170.183594 182.734375 170.15625 182.089844 170.527344 181.683594 C 170.90625 181.277344 171.546875 181.25 171.957031 181.621094 Z M 168.601562 179.089844 L 170.609375 178.878906 L 170.617188 179 L 170.636719 179.105469 L 170.652344 179.214844 L 170.671875 179.324219 L 170.6875 179.433594 L 170.714844 179.53125 L 170.742188 179.640625 L 170.769531 179.738281 L 170.796875 179.832031 L 170.832031 179.929688 L 170.871094 180.019531 L 170.90625 180.121094 L 170.941406 180.210938 L 170.980469 180.292969 L 171.023438 180.382812 L 171.070312 180.464844 L 171.113281 180.554688 L 171.160156 180.636719 L 171.203125 180.714844 L 171.25 180.789062 L 171.304688 180.871094 L 171.359375 180.941406 L 171.414062 181.023438 L 171.46875 181.097656 L 171.519531 181.167969 L 171.585938 181.230469 L 171.640625 181.304688 L 171.765625 181.429688 L 171.828125 181.503906 L 171.890625 181.566406 L 171.957031 181.621094 L 170.589844 183.113281 L 170.5 183.023438 L 170.398438 182.933594 L 170.308594 182.832031 L 170.21875 182.742188 L 170.128906 182.644531 L 170.039062 182.542969 L 169.957031 182.433594 L 169.875 182.328125 L 169.628906 182 L 169.558594 181.882812 L 169.484375 181.765625 L 169.414062 181.640625 L 169.339844 181.523438 L 169.277344 181.394531 L 169.207031 181.269531 L 169.152344 181.140625 L 169.089844 181.007812 L 168.925781 180.597656 L 168.878906 180.453125 L 168.835938 180.308594 L 168.796875 180.164062 L 168.753906 180.019531 L 168.726562 179.867188 L 168.691406 179.710938 L 168.636719 179.40625 L 168.617188 179.242188 Z M 168.601562 179.089844 C 168.546875 178.527344 168.945312 178.039062 169.503906 177.984375 C 170.054688 177.921875 170.554688 178.328125 170.609375 178.878906 Z M 170.316406 176.003906 L 170.609375 178.878906 L 168.601562 179.089844 L 168.308594 176.210938 Z M 168.308594 176.210938 C 168.246094 175.652344 168.652344 175.164062 169.207031 175.101562 C 169.765625 175.046875 170.253906 175.453125 170.316406 176.003906 Z M 217.371094 143.605469 L 155.78125 142.15625 L 155.828125 140.140625 L 217.417969 141.585938 L 217.507812 141.597656 Z M 217.417969 141.585938 C 217.976562 141.597656 218.410156 142.058594 218.402344 142.617188 C 218.382812 143.179688 217.921875 143.613281 217.371094 143.605469 Z M 220.03125 144.789062 L 218.03125 144.554688 L 218.03125 144.375 L 218.023438 144.335938 L 218.023438 144.292969 L 218.011719 144.257812 L 218.003906 144.210938 L 217.984375 144.175781 L 217.976562 144.128906 L 217.957031 144.09375 L 217.941406 144.058594 L 217.921875 144.019531 L 217.894531 143.984375 L 217.878906 143.949219 L 217.851562 143.921875 L 217.824219 143.886719 L 217.769531 143.832031 L 217.734375 143.792969 L 217.707031 143.765625 L 217.667969 143.75 L 217.632812 143.722656 L 217.597656 143.703125 L 217.5625 143.6875 L 217.523438 143.667969 L 217.488281 143.648438 L 217.40625 143.621094 L 217.363281 143.613281 L 217.269531 143.597656 L 217.507812 141.597656 L 217.660156 141.613281 L 217.796875 141.640625 L 217.941406 141.679688 L 218.078125 141.714844 L 218.210938 141.769531 L 218.347656 141.824219 L 218.472656 141.886719 L 218.59375 141.949219 L 218.71875 142.023438 L 218.835938 142.101562 L 218.945312 142.183594 L 219.054688 142.273438 L 219.152344 142.367188 L 219.253906 142.457031 L 219.34375 142.566406 L 219.433594 142.671875 L 219.597656 142.890625 L 219.667969 143.007812 L 219.730469 143.132812 L 219.792969 143.261719 L 219.847656 143.386719 L 219.894531 143.515625 L 219.941406 143.648438 L 219.976562 143.785156 L 220.003906 143.921875 L 220.03125 144.066406 L 220.046875 144.355469 L 220.046875 144.644531 Z M 220.03125 144.789062 C 219.964844 145.339844 219.460938 145.738281 218.910156 145.675781 C 218.355469 145.605469 217.957031 145.105469 218.03125 144.554688 Z M 219.820312 145.53125 L 217.851562 145.097656 L 217.941406 144.84375 L 217.949219 144.824219 L 217.949219 144.816406 L 217.957031 144.816406 L 217.957031 144.796875 L 217.96875 144.789062 L 217.96875 144.78125 L 217.976562 144.773438 L 217.976562 144.753906 L 217.984375 144.746094 L 217.984375 144.726562 L 217.996094 144.71875 L 217.996094 144.699219 L 218.003906 144.691406 L 218.003906 144.664062 L 218.011719 144.652344 L 218.011719 144.617188 L 218.023438 144.617188 L 218.023438 144.5625 L 218.03125 144.554688 L 220.03125 144.789062 L 220.03125 144.816406 L 220.019531 144.851562 L 220.019531 144.890625 L 220.011719 144.925781 L 220.011719 144.953125 L 220.003906 144.980469 L 219.992188 145.015625 L 219.984375 145.050781 L 219.984375 145.078125 L 219.976562 145.117188 L 219.964844 145.140625 L 219.957031 145.179688 L 219.949219 145.214844 L 219.941406 145.242188 L 219.929688 145.269531 L 219.921875 145.304688 L 219.914062 145.332031 L 219.902344 145.367188 L 219.886719 145.421875 L 219.867188 145.460938 L 219.859375 145.484375 L 219.847656 145.511719 L 219.832031 145.550781 L 219.820312 145.578125 L 219.8125 145.605469 L 219.792969 145.632812 L 219.785156 145.667969 L 219.769531 145.695312 L 219.757812 145.722656 L 219.742188 145.75 L 219.730469 145.777344 Z M 219.730469 145.777344 C 219.46875 146.273438 218.863281 146.464844 218.367188 146.210938 C 217.878906 145.949219 217.679688 145.339844 217.941406 144.84375 Z M 212.097656 171.390625 L 217.851562 145.097656 L 219.820312 145.53125 L 214.070312 171.824219 L 214.023438 171.988281 Z M 214.070312 171.824219 C 213.953125 172.367188 213.417969 172.710938 212.867188 172.59375 C 212.324219 172.476562 211.980469 171.933594 212.097656 171.390625 Z M 210.042969 176.917969 L 208.921875 175.234375 L 209.050781 175.144531 L 209.183594 175.054688 L 209.3125 174.964844 L 209.4375 174.863281 L 209.554688 174.765625 L 209.683594 174.664062 L 209.800781 174.558594 L 210.152344 174.230469 L 210.378906 174.003906 L 210.488281 173.886719 L 210.597656 173.761719 L 210.695312 173.644531 L 210.804688 173.515625 L 210.902344 173.390625 L 211.003906 173.261719 L 211.101562 173.128906 L 211.191406 172.992188 L 211.285156 172.855469 L 211.375 172.722656 L 211.464844 172.585938 L 211.554688 172.441406 L 211.71875 172.152344 L 211.800781 171.996094 L 211.871094 171.851562 L 211.945312 171.699219 L 212.015625 171.546875 L 212.089844 171.382812 L 212.152344 171.226562 L 214.023438 171.988281 L 213.941406 172.179688 L 213.851562 172.367188 L 213.769531 172.558594 L 213.679688 172.746094 L 213.589844 172.929688 L 213.492188 173.109375 L 213.390625 173.289062 L 213.292969 173.460938 L 212.964844 173.976562 L 212.847656 174.148438 L 212.738281 174.3125 L 212.613281 174.476562 L 212.496094 174.628906 L 212.367188 174.78125 L 212.242188 174.9375 L 212.117188 175.089844 L 211.980469 175.246094 L 211.84375 175.390625 L 211.707031 175.523438 L 211.574219 175.667969 L 211.140625 176.078125 L 210.984375 176.203125 L 210.832031 176.328125 L 210.6875 176.449219 L 210.523438 176.574219 L 210.371094 176.691406 L 210.207031 176.800781 Z M 210.042969 176.917969 C 209.582031 177.226562 208.957031 177.097656 208.640625 176.636719 C 208.335938 176.175781 208.460938 175.550781 208.921875 175.234375 Z M 203.992188 178.734375 L 203.992188 176.71875 L 204.164062 176.71875 L 204.328125 176.710938 L 204.5 176.699219 L 204.671875 176.691406 L 204.835938 176.683594 L 205.007812 176.664062 L 205.167969 176.644531 L 205.332031 176.621094 L 205.496094 176.59375 L 205.65625 176.566406 L 205.820312 176.539062 L 205.984375 176.5 L 206.136719 176.464844 L 206.300781 176.421875 L 206.605469 176.328125 L 206.761719 176.285156 L 206.914062 176.230469 L 207.070312 176.175781 L 207.222656 176.121094 L 207.367188 176.066406 L 207.519531 176.003906 L 207.664062 175.941406 L 207.808594 175.867188 L 207.953125 175.796875 L 208.101562 175.722656 L 208.234375 175.652344 L 208.378906 175.578125 L 208.515625 175.496094 L 208.652344 175.40625 L 208.785156 175.324219 L 208.921875 175.234375 L 210.042969 176.917969 L 209.882812 177.027344 L 209.710938 177.125 L 209.546875 177.226562 L 209.375 177.324219 L 209.203125 177.425781 L 209.03125 177.515625 L 208.851562 177.605469 L 208.679688 177.695312 L 208.496094 177.777344 L 208.316406 177.859375 L 208.136719 177.929688 L 207.945312 178.003906 L 207.765625 178.074219 L 207.574219 178.140625 L 207.386719 178.203125 L 207.195312 178.265625 L 207.003906 178.320312 L 206.816406 178.375 L 206.617188 178.417969 L 206.417969 178.464844 L 206.226562 178.511719 L 205.628906 178.617188 L 205.421875 178.644531 L 205.222656 178.664062 L 205.023438 178.691406 L 204.816406 178.707031 L 204.609375 178.71875 L 204.410156 178.726562 L 204.203125 178.734375 Z M 203.992188 178.734375 C 203.433594 178.734375 202.980469 178.285156 202.980469 177.722656 C 202.980469 177.171875 203.433594 176.71875 203.992188 176.71875 Z M 174.796875 176.71875 L 203.992188 176.71875 L 203.992188 178.734375 L 174.796875 178.734375 Z M 174.796875 178.734375 C 174.234375 178.734375 173.78125 178.285156 173.78125 177.722656 C 173.78125 177.171875 174.234375 176.71875 174.796875 176.71875 Z M 168.789062 176.953125 L 169.902344 175.273438 L 170.039062 175.351562 L 170.171875 175.445312 L 170.308594 175.523438 L 170.445312 175.597656 L 170.582031 175.679688 L 170.726562 175.75 L 170.871094 175.824219 L 171.003906 175.886719 L 171.152344 175.960938 L 171.296875 176.023438 L 171.449219 176.078125 L 171.59375 176.140625 L 171.738281 176.195312 L 171.890625 176.25 L 172.046875 176.292969 L 172.199219 176.339844 L 172.351562 176.382812 L 172.507812 176.429688 L 172.660156 176.464844 L 172.824219 176.5 L 172.976562 176.539062 L 173.304688 176.59375 L 173.464844 176.621094 L 173.628906 176.644531 L 173.792969 176.664062 L 173.953125 176.683594 L 174.117188 176.691406 L 174.289062 176.699219 L 174.453125 176.710938 L 174.625 176.71875 L 174.796875 176.71875 L 174.796875 178.734375 L 174.585938 178.734375 L 174.378906 178.726562 L 174.179688 178.71875 L 173.972656 178.707031 L 173.773438 178.691406 L 173.574219 178.671875 L 172.976562 178.589844 L 172.578125 178.519531 L 172.390625 178.472656 L 172.191406 178.429688 L 172 178.382812 L 171.8125 178.328125 L 171.429688 178.21875 L 171.242188 178.15625 L 171.058594 178.09375 L 170.878906 178.019531 L 170.6875 177.949219 L 170.507812 177.875 L 170.328125 177.796875 L 170.15625 177.714844 L 169.972656 177.632812 L 169.628906 177.453125 L 169.460938 177.359375 L 169.289062 177.261719 L 169.125 177.160156 L 168.953125 177.0625 Z M 168.789062 176.953125 C 168.328125 176.644531 168.203125 176.023438 168.507812 175.550781 C 168.816406 175.089844 169.441406 174.964844 169.902344 175.273438 Z M 164.820312 172.113281 L 166.671875 171.328125 L 166.738281 171.492188 L 166.808594 171.644531 L 166.882812 171.789062 L 166.960938 171.941406 L 167.035156 172.085938 L 167.117188 172.242188 L 167.199219 172.386719 L 167.277344 172.523438 L 167.371094 172.667969 L 167.460938 172.800781 L 167.640625 173.074219 L 167.730469 173.199219 L 167.832031 173.328125 L 167.929688 173.453125 L 168.03125 173.582031 L 168.136719 173.707031 L 168.238281 173.824219 L 168.347656 173.941406 L 168.453125 174.058594 L 168.574219 174.175781 L 168.679688 174.285156 L 168.796875 174.394531 L 168.917969 174.503906 L 169.035156 174.601562 L 169.152344 174.710938 L 169.269531 174.808594 L 169.394531 174.902344 L 169.523438 175 L 169.648438 175.089844 L 169.777344 175.179688 L 169.902344 175.273438 L 168.789062 176.953125 L 168.636719 176.84375 L 168.472656 176.738281 L 168.320312 176.621094 L 168.15625 176.5 L 168.011719 176.375 L 167.859375 176.257812 L 167.703125 176.132812 L 167.558594 176.003906 L 167.414062 175.867188 L 167.277344 175.734375 L 167.132812 175.597656 L 167 175.453125 L 166.863281 175.316406 L 166.738281 175.164062 L 166.601562 175.019531 L 166.472656 174.863281 L 166.355469 174.710938 L 166.230469 174.558594 L 166.113281 174.402344 L 165.996094 174.242188 L 165.878906 174.078125 L 165.769531 173.90625 L 165.660156 173.742188 L 165.550781 173.570312 L 165.453125 173.398438 L 165.351562 173.21875 L 165.253906 173.046875 L 165.164062 172.867188 L 165.070312 172.675781 L 164.980469 172.496094 L 164.898438 172.304688 Z M 164.820312 172.113281 C 164.59375 171.609375 164.835938 171.011719 165.351562 170.792969 C 165.859375 170.578125 166.457031 170.820312 166.671875 171.328125 Z M 154.796875 143.332031 L 166.671875 171.328125 L 164.820312 172.113281 L 152.933594 144.121094 Z M 152.933594 144.121094 C 152.714844 143.613281 152.960938 143.015625 153.476562 142.800781 C 153.984375 142.582031 154.578125 142.816406 154.796875 143.332031 Z M 154.472656 140.359375 L 155.25 142.222656 L 155.214844 142.238281 L 155.167969 142.257812 L 155.132812 142.273438 L 155.09375 142.300781 L 155.066406 142.328125 L 155.03125 142.347656 L 154.914062 142.464844 L 154.894531 142.5 L 154.871094 142.539062 L 154.851562 142.574219 L 154.824219 142.609375 L 154.804688 142.644531 L 154.796875 142.683594 L 154.777344 142.71875 L 154.761719 142.761719 L 154.75 142.800781 L 154.742188 142.84375 L 154.734375 142.882812 L 154.734375 142.960938 L 154.722656 143.007812 L 154.734375 143.042969 L 154.734375 143.125 L 154.742188 143.171875 L 154.75 143.214844 L 154.769531 143.253906 L 154.777344 143.296875 L 154.796875 143.332031 L 152.933594 144.121094 L 152.878906 143.984375 L 152.835938 143.847656 L 152.796875 143.703125 L 152.761719 143.570312 L 152.742188 143.425781 L 152.726562 143.289062 L 152.714844 143.144531 L 152.707031 143 L 152.714844 142.863281 L 152.726562 142.726562 L 152.742188 142.582031 L 152.761719 142.445312 L 152.796875 142.3125 L 152.835938 142.183594 L 152.878906 142.050781 L 152.925781 141.921875 L 152.980469 141.796875 L 153.042969 141.667969 L 153.105469 141.550781 L 153.179688 141.433594 L 153.257812 141.316406 L 153.339844 141.207031 L 153.429688 141.097656 L 153.53125 141 L 153.628906 140.898438 L 153.730469 140.808594 L 153.847656 140.71875 L 153.957031 140.636719 L 154.082031 140.554688 L 154.207031 140.484375 L 154.335938 140.421875 Z M 154.472656 140.359375 C 154.988281 140.140625 155.574219 140.382812 155.792969 140.898438 C 156.007812 141.40625 155.765625 142.003906 155.25 142.222656 Z M 154.796875 141.082031 L 156.8125 141.226562 L 155.683594 142.15625 L 155.675781 142.15625 L 155.65625 142.148438 L 155.511719 142.148438 L 155.492188 142.15625 L 155.4375 142.15625 L 155.429688 142.167969 L 155.402344 142.167969 L 155.386719 142.175781 L 155.367188 142.175781 L 155.347656 142.183594 L 155.332031 142.183594 L 155.320312 142.195312 L 155.304688 142.195312 L 155.292969 142.203125 L 155.277344 142.203125 L 155.265625 142.210938 L 155.25 142.222656 L 154.472656 140.359375 L 154.507812 140.339844 L 154.5625 140.320312 L 154.605469 140.304688 L 154.652344 140.285156 L 154.6875 140.277344 L 154.742188 140.257812 L 154.777344 140.25 L 154.824219 140.230469 L 154.878906 140.222656 L 154.921875 140.210938 L 154.96875 140.203125 L 155.015625 140.1875 L 155.058594 140.175781 L 155.105469 140.175781 L 155.148438 140.167969 L 155.195312 140.160156 L 155.238281 140.148438 L 155.285156 140.148438 L 155.332031 140.140625 L 155.421875 140.140625 L 155.476562 140.132812 L 155.703125 140.132812 L 155.746094 140.140625 L 155.835938 140.140625 L 155.875 140.148438 L 155.917969 140.148438 Z M 155.917969 140.148438 C 156.480469 140.222656 156.867188 140.71875 156.804688 141.269531 C 156.742188 141.824219 156.234375 142.222656 155.683594 142.15625 Z M 156.8125 141.21875 L 156.8125 141.226562 L 154.796875 141.082031 L 154.796875 141.070312 L 155.828125 140.140625 Z M 154.796875 141.070312 C 154.832031 140.519531 155.320312 140.105469 155.875 140.140625 C 156.433594 140.1875 156.851562 140.664062 156.8125 141.21875 Z M 154.796875 141.070312 " fill-opacity="1" fill-rule="nonzero"/><g clip-path="url(#d872ec51a3)"><path fill="#009444" d="M 177.863281 186.28125 C 179.265625 186.28125 180.53125 186.847656 181.460938 187.773438 L 181.472656 187.78125 C 182.382812 188.703125 182.953125 189.980469 182.953125 191.371094 C 182.953125 192.773438 182.382812 194.050781 181.460938 194.972656 C 180.539062 195.894531 179.265625 196.464844 177.863281 196.464844 C 176.460938 196.464844 175.195312 195.894531 174.269531 194.972656 L 174.261719 194.972656 C 173.339844 194.050781 172.769531 192.773438 172.769531 191.371094 C 172.769531 189.96875 173.339844 188.703125 174.261719 187.78125 L 174.269531 187.773438 C 175.195312 186.847656 176.460938 186.28125 177.863281 186.28125 Z M 185.421875 130.542969 C 184.644531 128.472656 183.757812 126.535156 182.820312 124.765625 C 182.078125 125.125 181.289062 125.414062 180.484375 125.625 C 178.351562 126.175781 176.0625 126.15625 173.863281 125.515625 C 173.277344 125.332031 172.933594 124.71875 173.113281 124.121094 C 173.285156 123.535156 173.910156 123.199219 174.496094 123.371094 C 176.296875 123.90625 178.167969 123.914062 179.925781 123.460938 C 180.539062 123.296875 181.144531 123.082031 181.722656 122.808594 C 177.988281 116.585938 173.566406 112.960938 170.398438 114.117188 C 165.984375 115.71875 165.667969 125.96875 169.683594 136.992188 C 169.902344 137.597656 170.136719 138.203125 170.371094 138.792969 L 187.867188 139.199219 C 187.484375 137.121094 186.925781 134.921875 186.183594 132.679688 C 185.316406 133.140625 184.390625 133.5 183.441406 133.746094 C 181.308594 134.296875 179.019531 134.277344 176.820312 133.636719 C 176.234375 133.457031 175.898438 132.839844 176.070312 132.242188 C 176.242188 131.65625 176.867188 131.320312 177.453125 131.492188 C 179.253906 132.027344 181.136719 132.035156 182.882812 131.582031 C 183.769531 131.359375 184.628906 131.003906 185.421875 130.542969 Z M 196.25 139.398438 L 193.230469 134.152344 L 197.425781 132.757812 C 197.898438 132.605469 198.160156 132.089844 198.003906 131.621094 C 197.851562 131.148438 197.335938 130.886719 196.867188 131.042969 L 192.496094 132.496094 C 192.433594 132.515625 192.378906 132.535156 192.324219 132.570312 L 191.980469 131.972656 C 191.105469 130.445312 190.984375 128.761719 191.636719 127.125 C 192.289062 125.488281 193.535156 124.347656 195.226562 123.851562 L 197.328125 123.226562 C 199.019531 122.71875 200.683594 122.992188 202.128906 124.003906 C 203.566406 125.027344 204.390625 126.5 204.492188 128.253906 L 205.015625 137.796875 C 204.941406 137.796875 204.871094 137.816406 204.789062 137.84375 L 200.421875 139.289062 C 200.285156 139.328125 200.175781 139.398438 200.078125 139.488281 Z M 194.144531 122.820312 C 192.875 121.390625 191.277344 120.449219 189.359375 119.996094 C 189.203125 119.960938 189.085938 119.878906 189.015625 119.742188 C 188.941406 119.609375 188.925781 119.464844 188.96875 119.320312 C 189.175781 118.640625 189.539062 118.007812 190.007812 117.472656 C 190.144531 117.328125 190.335938 117.265625 190.535156 117.3125 C 192.152344 117.699219 193.3125 118.460938 194.027344 119.589844 C 192.652344 117.644531 191.972656 116.054688 191.992188 114.804688 C 191.992188 114.589844 192.125 114.398438 192.335938 114.316406 C 193.019531 114.054688 193.773438 113.980469 194.503906 114.109375 C 194.738281 114.152344 194.910156 114.335938 194.9375 114.578125 C 195.039062 115.527344 195.238281 116.695312 195.554688 118.078125 C 195.589844 116.488281 196.332031 115.011719 197.570312 114.035156 C 197.707031 113.929688 197.871094 113.890625 198.042969 113.9375 C 198.628906 114.089844 199.191406 114.351562 199.6875 114.707031 C 199.921875 114.867188 199.984375 115.195312 199.824219 115.4375 C 198.476562 117.457031 197.84375 119.542969 197.925781 121.726562 C 197.597656 121.769531 197.273438 121.84375 196.945312 121.941406 L 194.847656 122.566406 C 194.605469 122.636719 194.371094 122.71875 194.144531 122.820312 Z M 201.308594 186.28125 C 202.699219 186.28125 203.976562 186.847656 204.898438 187.773438 L 204.90625 187.78125 C 205.828125 188.710938 206.398438 189.980469 206.398438 191.371094 C 206.398438 192.773438 205.828125 194.050781 204.90625 194.972656 L 204.898438 194.972656 C 203.976562 195.894531 202.707031 196.464844 201.308594 196.464844 C 199.90625 196.464844 198.628906 195.894531 197.707031 194.972656 C 196.785156 194.050781 196.214844 192.773438 196.214844 191.371094 C 196.214844 189.96875 196.785156 188.703125 197.707031 187.78125 L 197.707031 187.773438 C 198.628906 186.847656 199.90625 186.28125 201.308594 186.28125 Z M 201.308594 186.28125 " fill-opacity="1" fill-rule="evenodd"/></g><g fill="#009444" fill-opacity="1"><g transform="translate(132.159734, 237.894013)"><g><path d="M 1.78125 -20.46875 L 11.09375 -13.046875 L 1.78125 -5.578125 L 1.78125 -9.3125 L 7.359375 -13.046875 L 1.78125 -16.75 Z M 1.78125 -20.46875 "/></g></g></g><g fill="#009444" fill-opacity="1"><g transform="translate(143.783197, 237.894013)"><g/></g></g><g fill="#009444" fill-opacity="1"><g transform="translate(154.446931, 237.894013)"><g><path d="M 17.59375 -15.8125 C 18.28125 -15.4375 18.894531 -14.941406 19.4375 -14.328125 C 19.914062 -13.804688 20.359375 -13.128906 20.765625 -12.296875 C 21.140625 -11.472656 21.328125 -10.476562 21.328125 -9.3125 C 21.328125 -7.914062 21.101562 -6.648438 20.65625 -5.515625 C 20.175781 -4.367188 19.507812 -3.394531 18.65625 -2.59375 C 17.78125 -1.757812 16.71875 -1.117188 15.46875 -0.671875 C 14.1875 -0.222656 12.726562 0 11.09375 0 L 1.78125 0 L 1.78125 -26.0625 L 11.09375 -26.0625 C 12.726562 -26.0625 14.078125 -25.859375 15.140625 -25.453125 C 16.210938 -25.023438 17.066406 -24.492188 17.703125 -23.859375 C 18.335938 -23.210938 18.785156 -22.507812 19.046875 -21.75 C 19.304688 -20.96875 19.4375 -20.234375 19.4375 -19.546875 C 19.4375 -18.890625 19.34375 -18.320312 19.15625 -17.84375 C 18.945312 -17.375 18.722656 -16.992188 18.484375 -16.703125 C 18.242188 -16.398438 18.03125 -16.175781 17.84375 -16.03125 C 17.65625 -15.882812 17.570312 -15.8125 17.59375 -15.8125 Z M 12.9375 -19.546875 C 12.9375 -20.472656 12.675781 -21.171875 12.15625 -21.640625 C 11.613281 -22.097656 10.628906 -22.328125 9.203125 -22.328125 L 9.203125 -16.75 C 10.628906 -16.75 11.613281 -16.984375 12.15625 -17.453125 C 12.675781 -17.898438 12.9375 -18.597656 12.9375 -19.546875 Z M 9.203125 -3.734375 C 10.128906 -3.734375 10.898438 -3.882812 11.515625 -4.1875 C 12.109375 -4.5 12.582031 -4.894531 12.9375 -5.375 C 13.289062 -5.820312 13.539062 -6.316406 13.6875 -6.859375 C 13.800781 -7.398438 13.859375 -7.910156 13.859375 -8.390625 C 13.859375 -8.835938 13.800781 -9.332031 13.6875 -9.875 C 13.539062 -10.425781 13.289062 -10.9375 12.9375 -11.40625 C 12.582031 -11.851562 12.109375 -12.234375 11.515625 -12.546875 C 10.898438 -12.859375 10.128906 -13.015625 9.203125 -13.015625 Z M 9.203125 -3.734375 "/></g></g></g><g fill="#009444" fill-opacity="1"><g transform="translate(176.840764, 237.894013)"><g><path d="M 13.46875 -7.421875 L 8.421875 -7.421875 L 6.296875 0 L 0.703125 0 L 8.140625 -26.0625 L 15.609375 -26.0625 L 23.03125 0 L 15.609375 0 Z M 12.40625 -11.15625 L 10.953125 -16.28125 L 9.484375 -11.15625 Z M 12.40625 -11.15625 "/></g></g></g><g fill="#009444" fill-opacity="1"><g transform="translate(200.585329, 237.894013)"><g><path d="M 1.78125 -5.546875 L 2.125 -6.1875 C 2.34375 -6.613281 2.640625 -7.171875 3.015625 -7.859375 C 3.367188 -8.546875 3.785156 -9.335938 4.265625 -10.234375 C 4.734375 -11.109375 5.21875 -12.007812 5.71875 -12.9375 C 6.21875 -13.863281 6.71875 -14.773438 7.21875 -15.671875 C 7.6875 -16.546875 8.113281 -17.34375 8.5 -18.0625 C 8.875 -18.769531 9.179688 -19.347656 9.421875 -19.796875 C 9.628906 -20.222656 9.75 -20.445312 9.78125 -20.46875 L 1.78125 -20.46875 L 1.78125 -26.0625 L 18.171875 -26.0625 L 18.171875 -20.515625 C 18.097656 -20.390625 17.859375 -19.9375 17.453125 -19.15625 C 17.023438 -18.375 16.515625 -17.4375 15.921875 -16.34375 C 15.328125 -15.238281 14.703125 -14.066406 14.046875 -12.828125 L 12.1875 -9.34375 C 11.625 -8.28125 11.148438 -7.394531 10.765625 -6.6875 C 10.367188 -5.96875 10.171875 -5.597656 10.171875 -5.578125 L 18.171875 -5.578125 L 18.171875 0 L 1.78125 0 Z M 1.78125 -5.546875 "/></g></g></g><g fill="#009444" fill-opacity="1"><g transform="translate(220.526505, 237.894013)"><g/></g></g><g fill="#009444" fill-opacity="1"><g transform="translate(231.190238, 237.894013)"><g><path d="M 9.84375 -16.75 L 4.265625 -13.046875 L 9.84375 -9.3125 L 9.84375 -5.578125 L 0.53125 -13.046875 L 9.84375 -20.46875 Z M 9.84375 -16.75 "/></g></g></g></svg>